<?xml version="1.0" encoding="utf-8"?>
<!-- Generator: Adobe Illustrator 25.2.0, SVG Export Plug-In . SVG Version: 6.00 Build 0)  -->
<svg version="1.1" id="Layer_1" xmlns="http://www.w3.org/2000/svg" xmlns:xlink="http://www.w3.org/1999/xlink" x="0px" y="0px"
	 viewBox="0 0 84 89" style="enable-background:new 0 0 84 89;" xml:space="preserve">
<style type="text/css">
	.st0{fill:#231F20;}
	.st1{fill:#28BDBF;}
	.st2{fill:#0E8F8D;}
	.st3{fill:#424143;}
	.st4{fill:#88D3E1;}
	.st5{fill:#167367;}
	.st6{fill:#FEDF2D;}
</style>
<g>
	
		<rect x="17.33" y="71.01" transform="matrix(0.157 -0.9876 0.9876 0.157 -60.0501 82.5206)" class="st0" width="1.96" height="10.85"/>
	
		<rect x="22.52" y="73.24" transform="matrix(0.7535 -0.6574 0.6574 0.7535 -42.1008 36.1604)" class="st0" width="9.31" height="1.96"/>
	<path class="st1" d="M24.15,75.76c-0.84-0.27-1.74,0.2-2.01,1.05c-0.27,0.84,0.2,1.74,1.05,2.01c0.84,0.27,1.74-0.2,2.01-1.05
		C25.46,76.92,24.99,76.02,24.15,75.76z"/>
	
		<rect x="8.33" y="68.68" transform="matrix(0.1479 -0.989 0.989 0.1479 -57.1753 72.9655)" class="st0" width="10.85" height="1.96"/>
	
		<rect x="11.67" y="69.78" transform="matrix(0.8338 -0.5521 0.5521 0.8338 -35.8443 22.4661)" class="st0" width="15.44" height="1.96"/>
	<path class="st1" d="M14.56,75.03c0,0.88-0.72,1.6-1.6,1.6c-0.88,0-1.6-0.72-1.6-1.6c0-0.88,0.72-1.6,1.6-1.6
		C13.84,73.42,14.56,74.14,14.56,75.03z"/>
	
		<rect x="13.88" y="60.89" transform="matrix(0.8539 -0.5205 0.5205 0.8539 -29.4979 18.6861)" class="st0" width="9.31" height="1.96"/>
	<path class="st2" d="M24.95,54.52h-7.22c0,0,4.08,16.61,18.22,20.51c4.37-8.68,4.37-8.68,4.37-8.68L24.95,54.52z"/>
	<path class="st1" d="M28.44,8.92l17.02,1.01c5.92,1.71,11.05,5.45,14.49,10.57l0,0c2.9,4.32,4.46,9.41,4.46,14.62v40.53
		l-10.95,0.19c-23.27-1.11-31.65-17.35-33.05-30.43l0,0l15.02-12.84L28.44,8.92z"/>
	<rect x="41.2" y="37.52" class="st2" width="23.21" height="7.68"/>
	<circle class="st0" cx="31.07" cy="39.53" r="13.62"/>
	<polygon class="st2" points="64.41,43.41 69.65,56.04 64.41,59.99 	"/>
	
		<ellipse transform="matrix(0.2418 -0.9703 0.9703 0.2418 -14.8054 60.1189)" class="st3" cx="31.07" cy="39.53" rx="9.26" ry="9.26"/>
	<path class="st4" d="M26.52,57.04c0,0,4.71,14.36,28.02,15.11c0-17.06,0-17.06,0-17.06l-7.6-5.13
		C46.95,49.96,39.62,61.36,26.52,57.04z"/>
	<path class="st2" d="M48.43,52.65c0,0.48-0.39,0.87-0.87,0.87c-0.48,0-0.87-0.39-0.87-0.87c0-0.48,0.39-0.87,0.87-0.87
		C48.04,51.77,48.43,52.16,48.43,52.65z"/>
	<circle class="st2" cx="52.62" cy="56.17" r="0.87"/>
	<circle class="st2" cx="52.62" cy="69.84" r="0.87"/>
	<path class="st2" d="M30.54,59.45c0,0.48-0.39,0.87-0.87,0.87c-0.48,0-0.87-0.39-0.87-0.87c0-0.48,0.39-0.87,0.87-0.87
		C30.15,58.58,30.54,58.97,30.54,59.45z"/>
	<rect x="13.95" y="13.12" class="st5" width="22" height="0.65"/>
	<g>
		<path class="st2" d="M14.63,13.45c0,0.37-0.3,0.67-0.67,0.67c-0.37,0-0.67-0.3-0.67-0.67c0-0.37,0.3-0.67,0.67-0.67
			C14.32,12.77,14.63,13.08,14.63,13.45z"/>
		<path class="st5" d="M13.95,14.45c-0.55,0-1-0.45-1-1s0.45-1,1-1c0.55,0,1,0.45,1,1S14.5,14.45,13.95,14.45z M13.95,13.1
			c-0.19,0-0.35,0.16-0.35,0.35c0,0.19,0.16,0.35,0.35,0.35c0.19,0,0.35-0.16,0.35-0.35C14.3,13.26,14.14,13.1,13.95,13.1z"/>
	</g>
	<rect x="17.73" y="16.9" class="st5" width="22" height="0.65"/>
	<g>
		<circle class="st2" cx="17.73" cy="17.23" r="0.67"/>
		<path class="st5" d="M17.73,18.22c-0.55,0-1-0.45-1-1c0-0.55,0.45-1,1-1s1,0.45,1,1C18.73,17.78,18.28,18.22,17.73,18.22z
			 M17.73,16.88c-0.19,0-0.35,0.16-0.35,0.35c0,0.19,0.16,0.35,0.35,0.35c0.19,0,0.35-0.16,0.35-0.35
			C18.08,17.03,17.92,16.88,17.73,16.88z"/>
	</g>
	<rect x="21.51" y="20.68" class="st5" width="22" height="0.65"/>
	<g>
		<circle class="st2" cx="21.51" cy="21" r="0.67"/>
		<path class="st5" d="M21.51,22c-0.55,0-1-0.45-1-1s0.45-1,1-1c0.55,0,1,0.45,1,1S22.06,22,21.51,22z M21.51,20.65
			c-0.19,0-0.35,0.16-0.35,0.35c0,0.19,0.16,0.35,0.35,0.35c0.19,0,0.35-0.16,0.35-0.35C21.86,20.81,21.7,20.65,21.51,20.65z"/>
	</g>
	<path class="st1" d="M16.16,64.3c0,0.88-0.72,1.6-1.6,1.6c-0.88,0-1.6-0.72-1.6-1.6c0-0.88,0.72-1.6,1.6-1.6
		C15.44,62.7,16.16,63.41,16.16,64.3z"/>
	<rect x="54.55" y="40.51" class="st6" width="9.86" height="2.85"/>
	<path class="st4" d="M40.32,13.12l6.36,7.53h8.57C55.26,20.65,50.68,13.12,40.32,13.12z"/>
	<rect x="45.96" y="24.77" class="st0" width="9.3" height="0.98"/>
	<rect x="45.96" y="27.22" class="st0" width="9.3" height="0.98"/>
	<rect x="45.96" y="29.68" class="st0" width="9.3" height="0.98"/>
</g>
</svg>
