<?xml version="1.0" encoding="utf-8"?>
<!-- Generator: Adobe Illustrator 25.2.0, SVG Export Plug-In . SVG Version: 6.00 Build 0)  -->
<svg version="1.1" id="Layer_1" xmlns="http://www.w3.org/2000/svg" xmlns:xlink="http://www.w3.org/1999/xlink" x="0px" y="0px"
	 viewBox="0 0 113 94" style="enable-background:new 0 0 113 94;" xml:space="preserve">
<style type="text/css">
	.st0{fill:#4D4D4D;}
	.st1{fill:#88D3E1;}
	.st2{fill:#6DCAD0;}
	.st3{fill:#0E8F8D;}
	.st4{fill:#231F20;}
	.st5{fill:#0C7B78;}
</style>
<g>
	<path class="st0" d="M86.14,56.33c0,0,0.09,0.48,0.13,1.2c0.05,0.72,0.05,1.68,0,2.65c-0.04,0.96-0.15,1.92-0.33,2.65
		c-0.17,0.72-0.4,1.2-0.4,1.2s-0.23-0.48-0.4-1.2c-0.18-0.72-0.3-1.68-0.33-2.65c-0.05-0.96-0.05-1.92,0-2.65
		c0.04-0.72,0.13-1.2,0.13-1.2H86.14z"/>
	<polygon class="st0" points="82.51,56.65 80.09,60.55 80.11,59.94 81.63,64.03 79.04,60.52 78.84,60.25 79.06,59.91 81.48,56.01 	
		"/>
	<polygon class="st0" points="89.36,56.04 91.94,59.84 92.16,60.18 91.98,60.45 89.52,64.06 90.89,59.91 90.93,60.52 88.35,56.73 	
		"/>
	<path class="st1" d="M85.5,49.09l-4.47,4.09c-0.57,0.53-0.9,1.27-0.9,2.05v1.43h10.8v-1.43c0-0.78-0.33-1.53-0.91-2.06L85.5,49.09z
		"/>
	<polygon class="st0" points="86.11,49.08 84.89,49.08 84.89,22.27 54.51,13.47 37.94,35.36 36.97,34.62 54.05,12.07 86.11,21.35 	
		"/>
	<path class="st2" d="M44.75,35.22v21.43h-14.6V35.22c0-3.4,2.33-6.26,5.47-7.06c0.58-0.16,1.2-0.24,1.82-0.24
		c2.02,0,3.85,0.81,5.16,2.14C43.94,31.39,44.75,33.21,44.75,35.22z"/>
	<path class="st1" d="M41.1,35.22v21.43H30.15V35.22c0-3.4,2.33-6.26,5.47-7.06c1.29,0.32,2.43,0.99,3.34,1.9
		C40.29,31.39,41.1,33.21,41.1,35.22z"/>
	<rect x="24.56" y="58.45" class="st3" width="25.8" height="9.88"/>
	<path class="st3" d="M88.3,86.84H28.7c-3.01,0-5.44-2.44-5.44-5.44v-6.63h70.48v6.63C93.74,84.41,91.3,86.84,88.3,86.84z"/>
	<path class="st4" d="M97.9,80.81H19.1c-3.75,0-6.78-3.04-6.78-6.78l0,0c0-3.75,3.04-6.78,6.78-6.78h78.8
		c3.75,0,6.78,3.04,6.78,6.78l0,0C104.68,77.77,101.65,80.81,97.9,80.81z"/>
	<path class="st0" d="M19.1,75.94c-1.06,0-1.92-0.86-1.92-1.92c0-1.06,0.86-1.92,1.92-1.92h78.8c1.06,0,1.92,0.86,1.92,1.92
		c0,1.06-0.86,1.92-1.92,1.92H19.1z"/>
	<path class="st5" d="M46.77,54.86H28.15c-1.98,0-3.59,1.61-3.59,3.59v0h25.8v0C50.35,56.46,48.75,54.86,46.77,54.86z"/>
	<path class="st4" d="M41.11,34.99c0,2.02-1.63,3.65-3.65,3.65c-2.02,0-3.65-1.63-3.65-3.65c0-2.02,1.63-3.65,3.65-3.65
		C39.47,31.34,41.11,32.97,41.11,34.99z"/>
	<path class="st5" d="M52.98,18.52l-5.15,6.79c-0.47,0.63-1.2,0.96-1.93,0.96c-0.51,0-1.03-0.16-1.47-0.49
		c-0.43-0.33-0.72-0.77-0.86-1.25c-0.21-0.72-0.09-1.52,0.39-2.17l5.15-6.79c0.63-0.83,1.68-1.14,2.63-0.85
		c0.27,0.07,0.54,0.21,0.78,0.39C53.58,15.92,53.8,17.45,52.98,18.52z"/>
	<path class="st3" d="M51.34,16.87l-5.15,6.8c-0.47,0.63-1.2,0.96-1.95,0.96c-0.23,0-0.46-0.04-0.68-0.1
		c-0.21-0.72-0.09-1.52,0.39-2.17l5.15-6.79c0.63-0.83,1.68-1.14,2.63-0.85C51.95,15.43,51.83,16.23,51.34,16.87z"/>
	<path class="st5" d="M81.4,20.62c-0.3,1.06-1.28,1.75-2.34,1.75c-0.22,0-0.45-0.02-0.67-0.1l-19.22-5.56
		c-1.29-0.38-2.04-1.73-1.67-3.02c0.06-0.22,0.16-0.41,0.28-0.6c0.55-0.91,1.67-1.39,2.74-1.07l19.22,5.57
		c0.61,0.18,1.08,0.57,1.39,1.07C81.48,19.24,81.59,19.94,81.4,20.62z"/>
	<path class="st3" d="M81.13,18.68c-0.44,0.72-1.23,1.16-2.07,1.16c-0.22,0-0.45-0.02-0.67-0.1l-19.22-5.56
		c-0.61-0.18-1.09-0.57-1.39-1.07c0.55-0.91,1.67-1.39,2.74-1.07l19.22,5.57C80.35,17.79,80.82,18.18,81.13,18.68z"/>
	<path class="st3" d="M87.94,27.92v14.37c0,1.34-1.09,2.43-2.43,2.43c-0.44,0-0.86-0.12-1.22-0.33c-0.73-0.43-1.22-1.2-1.22-2.1
		V27.92c0-0.9,0.49-1.68,1.22-2.09c0.35-0.22,0.78-0.34,1.22-0.34C86.84,25.49,87.94,26.59,87.94,27.92z"/>
	<path class="st5" d="M85.51,27.92v14.37c0,0.9-0.49,1.68-1.22,2.1c-0.73-0.43-1.22-1.2-1.22-2.1V27.92c0-0.9,0.49-1.68,1.22-2.09
		C85.02,26.24,85.51,27.02,85.51,27.92z"/>
	<path class="st4" d="M55.89,12.77c0,0.89-0.72,1.61-1.61,1.61c-0.89,0-1.61-0.72-1.61-1.61c0-0.89,0.72-1.61,1.61-1.61
		C55.17,11.16,55.89,11.88,55.89,12.77z"/>
	<circle class="st4" cx="85.5" cy="21.81" r="1.61"/>
	<circle class="st4" cx="85.5" cy="49.09" r="1.61"/>
	<path class="st4" d="M91.25,57.23H79.81c-0.5,0-0.9-0.4-0.9-0.9l0,0c0-0.5,0.4-0.9,0.9-0.9h11.43c0.5,0,0.9,0.4,0.9,0.9l0,0
		C92.14,56.83,91.74,57.23,91.25,57.23z"/>
</g>
</svg>
