<?xml version="1.0" encoding="utf-8"?>
<!-- Generator: Adobe Illustrator 25.2.0, SVG Export Plug-In . SVG Version: 6.00 Build 0)  -->
<svg version="1.1" id="Layer_1" xmlns="http://www.w3.org/2000/svg" xmlns:xlink="http://www.w3.org/1999/xlink" x="0px" y="0px"
	 viewBox="0 0 71.68 101.37" style="enable-background:new 0 0 71.68 101.37;" xml:space="preserve">
<style type="text/css">
	.st0{fill:#231F20;}
	.st1{fill:#CF9F6F;}
	.st2{fill:#28BDBF;}
	.st3{fill:#0E8F8D;}
	.st4{fill:#E5B784;}
	.st5{fill:#167367;}
	.st6{fill:#298581;}
	.st7{fill:#EF4237;}
	.st8{fill:#BB8C61;}
	.st9{fill:#424143;}
	.st10{fill:#FFFFFF;}
</style>
<g>
	<path class="st0" d="M60.25,33.51c0,0,0,11.19-0.94,14.31c-0.81,2.67-2.57,4.04-2.57,4.04V33.51H60.25z"/>
	<path class="st1" d="M56.51,46.12c0,0,2.68-3.73,4.8-1.05c2.11,2.69-3.65,11.93-4.23,11.93s-0.57,0-0.57,0V46.12z"/>
	<polygon class="st2" points="33.53,15 33.53,87.71 30.58,86.86 29.97,86.68 28.18,86.17 27.59,86.01 24.1,85 10.3,65.81 
		10.3,32.49 17.03,22.07 	"/>
	<polygon class="st3" points="33.53,12.29 33.53,32.49 8.28,32.49 8.28,29.8 16.36,17.69 	"/>
	<path class="st4" d="M53.91,27.26L53.91,27.26c1.86,3.44,2.83,7.29,2.83,11.2v19.78c0,4.93-1.55,9.74-4.43,13.75l-4.59,6.38
		c-3.09,4.3-7.55,7.43-12.65,8.89l-1.56,0.44V32.5v-17.5C33.52,14.99,46.98,17.69,53.91,27.26z"/>
	<path class="st1" d="M33.52,35.48c0,0,2.19,4.17,12.16,4.54s11.07,0,11.07,0l0.29-5.81L40,28.16l-6.48-1.64V35.48z"/>
	<rect x="10.3" y="42.93" class="st3" width="3.25" height="16.4"/>
	<path class="st0" d="M12.32,58.41H9.91c-1.64,0-2.98-1.33-2.98-2.98v-9.53c0-1.64,1.33-2.98,2.98-2.98h2.41V58.41z"/>
	<rect x="10.3" y="32.5" class="st5" width="23.23" height="1.01"/>
	<polygon class="st2" points="8.28,29.8 14,29.8 19.38,22.82 16.35,17.69 	"/>
	<polygon class="st2" points="17.16,17.34 19.97,22.4 33.52,17.01 33.52,12.3 	"/>
	<polygon class="st5" points="16.86,32.5 15.85,32.5 15.85,29.63 20.59,23.57 33.52,19.11 33.52,20.24 21.2,24.43 16.86,29.98 	"/>
	<path class="st5" d="M27.88,50.42c0,2.88-2.34,5.22-5.22,5.22s-5.22-2.34-5.22-5.22c0-2.88,2.34-5.22,5.22-5.22
		S27.88,47.54,27.88,50.42z"/>
	<path class="st6" d="M27.13,50.42c0,2.46-2,4.46-4.46,4.46s-4.46-2-4.46-4.46c0-2.46,2-4.46,4.46-4.46S27.13,47.96,27.13,50.42z"/>
	<g>
		<path class="st7" d="M24.6,50.42c0,1.07-0.87,1.94-1.94,1.94c-1.07,0-1.94-0.87-1.94-1.94c0-1.07,0.87-1.94,1.94-1.94
			C23.73,48.49,24.6,49.35,24.6,50.42z"/>
		<path class="st5" d="M22.67,52.86c-1.35,0-2.44-1.09-2.44-2.44c0-1.35,1.09-2.44,2.44-2.44c1.35,0,2.44,1.09,2.44,2.44
			C25.11,51.77,24.01,52.86,22.67,52.86z M22.67,48.99c-0.79,0-1.43,0.64-1.43,1.43c0,0.79,0.64,1.43,1.43,1.43
			c0.79,0,1.43-0.64,1.43-1.43C24.1,49.63,23.45,48.99,22.67,48.99z"/>
	</g>
	<rect x="22.17" y="52.36" class="st5" width="1.01" height="2.93"/>
	<rect x="22.17" y="45.62" class="st5" width="1.01" height="2.87"/>
	<rect x="17.83" y="49.96" class="st5" width="2.91" height="1.01"/>
	<rect x="24.61" y="49.96" class="st5" width="2.91" height="1.01"/>
	
		<rect x="18.81" y="52.33" transform="matrix(0.7071 -0.7072 0.7072 0.7071 -31.4239 29.8188)" class="st5" width="2.94" height="1.01"/>
	
		<rect x="23.62" y="47.55" transform="matrix(0.7071 -0.7072 0.7072 0.7071 -26.6371 31.8012)" class="st5" width="2.88" height="1.01"/>
	
		<rect x="19.75" y="46.61" transform="matrix(0.7072 -0.707 0.707 0.7072 -28.0418 28.3941)" class="st5" width="1.01" height="2.88"/>
	
		<rect x="24.55" y="51.39" transform="matrix(0.7072 -0.707 0.707 0.7072 -30.0286 33.19)" class="st5" width="1.01" height="2.91"/>
	<path class="st0" d="M33.52,12.3c0,0,13.39,1.09,18.98,6.02c4.89,4.31,7.23,6.52,7.76,15.19c0.53,8.67-3.51,4.95-3.51,4.95
		s-18.85,2.04-23.23-4.95C33.52,24.76,33.52,12.3,33.52,12.3z"/>
	<polygon class="st1" points="44.8,70.85 33.52,72.08 33.52,69.62 44.8,70.32 	"/>
	<polygon class="st8" points="33.52,71.2 44.8,70.85 35.86,73.48 33.52,73.48 	"/>
	<path class="st1" d="M33.52,49.07c0,0,3.32,11.66,2.95,12.29c-0.38,0.63-2.95,2.27-2.95,2.27V49.07z"/>
	<path class="st0" d="M51.22,46H39.89c-0.49,0-0.9-0.4-0.9-0.9l0,0c0-0.49,0.4-0.9,0.9-0.9h11.34c0.49,0,0.9,0.4,0.9,0.9l0,0
		C52.12,45.6,51.72,46,51.22,46z"/>
	<rect x="19.38" y="30.39" class="st5" width="14.14" height="0.61"/>
	<polygon class="st5" points="33.52,29 24.57,29 22.05,26.84 22.44,26.38 24.8,28.4 33.52,28.4 	"/>
	<polygon class="st5" points="33.53,21.67 33.53,22.29 25.95,24.51 25.95,26.39 25.35,26.39 25.35,24.07 	"/>
	<polygon class="st5" points="33.53,24.63 33.53,25.26 29.73,26.27 29.57,25.68 	"/>
	<g>
		<circle class="st3" cx="29.65" cy="25.98" r="0.63"/>
		<path class="st5" d="M29.65,26.91c-0.52,0-0.93-0.42-0.93-0.93c0-0.51,0.42-0.93,0.93-0.93c0.51,0,0.93,0.42,0.93,0.93
			C30.58,26.49,30.16,26.91,29.65,26.91z M29.65,25.65c-0.18,0-0.33,0.15-0.33,0.33c0,0.18,0.15,0.33,0.33,0.33
			c0.18,0,0.33-0.15,0.33-0.33C29.98,25.79,29.83,25.65,29.65,25.65z"/>
	</g>
	<g>
		<circle class="st3" cx="25.65" cy="26.06" r="0.63"/>
		<path class="st5" d="M25.65,26.99c-0.51,0-0.93-0.42-0.93-0.93c0-0.51,0.42-0.93,0.93-0.93c0.51,0,0.93,0.42,0.93,0.93
			C26.59,26.57,26.17,26.99,25.65,26.99z M25.65,25.73c-0.18,0-0.33,0.15-0.33,0.33c0,0.18,0.15,0.33,0.33,0.33
			c0.18,0,0.33-0.15,0.33-0.33C25.98,25.88,25.83,25.73,25.65,25.73z"/>
	</g>
	<g>
		<circle class="st3" cx="22.24" cy="26.61" r="0.63"/>
		<path class="st5" d="M22.24,27.54c-0.51,0-0.93-0.42-0.93-0.93c0-0.51,0.42-0.93,0.93-0.93c0.51,0,0.93,0.42,0.93,0.93
			C23.18,27.12,22.76,27.54,22.24,27.54z M22.24,26.28c-0.18,0-0.33,0.15-0.33,0.33c0,0.18,0.15,0.33,0.33,0.33
			c0.18,0,0.33-0.15,0.33-0.33C22.57,26.43,22.43,26.28,22.24,26.28z"/>
	</g>
	<g>
		<circle class="st3" cx="19.38" cy="30.69" r="0.63"/>
		<path class="st5" d="M19.38,31.62c-0.51,0-0.93-0.42-0.93-0.93c0-0.51,0.42-0.93,0.93-0.93c0.51,0,0.93,0.42,0.93,0.93
			C20.32,31.2,19.9,31.62,19.38,31.62z M19.38,30.36c-0.18,0-0.33,0.15-0.33,0.33c0,0.18,0.15,0.33,0.33,0.33
			c0.18,0,0.33-0.15,0.33-0.33C19.71,30.51,19.56,30.36,19.38,30.36z"/>
	</g>
	<path class="st3" d="M11.43,69.35l9.68,13.3c0.52,0.72,1.62,0.64,2.04-0.14l2.92-5.49l-7.31-10.1L12.2,67.6
		C11.36,67.69,10.92,68.66,11.43,69.35z"/>
	<polygon class="st5" points="28.18,77.39 28.18,86.17 27.59,86.01 27.59,77.39 	"/>
	<polygon class="st5" points="30.58,78.35 30.58,86.86 29.97,86.68 29.97,78.35 	"/>
	<g>
		<circle class="st3" cx="27.88" cy="77.39" r="0.63"/>
		<path class="st5" d="M27.88,78.32c-0.51,0-0.93-0.42-0.93-0.93c0-0.51,0.42-0.93,0.93-0.93c0.51,0,0.93,0.42,0.93,0.93
			C28.82,77.91,28.4,78.32,27.88,78.32z M27.88,77.06c-0.18,0-0.33,0.15-0.33,0.33c0,0.18,0.15,0.33,0.33,0.33
			c0.18,0,0.33-0.15,0.33-0.33C28.21,77.21,28.06,77.06,27.88,77.06z"/>
	</g>
	<g>
		<circle class="st3" cx="30.28" cy="78.36" r="0.63"/>
		<path class="st5" d="M30.28,79.29c-0.51,0-0.93-0.42-0.93-0.93c0-0.51,0.42-0.93,0.93-0.93c0.51,0,0.93,0.42,0.93,0.93
			C31.21,78.87,30.8,79.29,30.28,79.29z M30.28,78.03c-0.18,0-0.33,0.15-0.33,0.33c0,0.18,0.15,0.33,0.33,0.33
			c0.18,0,0.33-0.15,0.33-0.33C30.61,78.18,30.46,78.03,30.28,78.03z"/>
	</g>
	<rect x="25.31" y="69.62" class="st0" width="8.21" height="3.86"/>
	<rect x="26.18" y="69.62" class="st9" width="0.69" height="3.86"/>
	<rect x="27.82" y="69.62" class="st9" width="0.69" height="3.86"/>
	<rect x="29.46" y="69.62" class="st9" width="0.69" height="3.86"/>
	<rect x="31.1" y="69.62" class="st9" width="0.69" height="3.86"/>
	<rect x="32.74" y="69.62" class="st9" width="0.69" height="3.86"/>
	<path class="st9" d="M11.47,44.21c0,0.33-0.26,0.59-0.59,0.59c-0.33,0-0.59-0.26-0.59-0.59c0-0.33,0.26-0.59,0.59-0.59
		C11.21,43.62,11.47,43.88,11.47,44.21z"/>
	<path class="st9" d="M11.47,57.01c0,0.33-0.26,0.59-0.59,0.59c-0.33,0-0.59-0.26-0.59-0.59c0-0.33,0.26-0.59,0.59-0.59
		C11.21,56.42,11.47,56.68,11.47,57.01z"/>
	<path class="st5" d="M18.77,68.3c0,0.33-0.26,0.59-0.59,0.59s-0.59-0.26-0.59-0.59s0.26-0.59,0.59-0.59S18.77,67.97,18.77,68.3z"/>
	<path class="st5" d="M12.9,68.89c0,0.33-0.26,0.59-0.59,0.59c-0.33,0-0.59-0.26-0.59-0.59c0-0.33,0.26-0.59,0.59-0.59
		C12.64,68.3,12.9,68.56,12.9,68.89z"/>
	<path class="st5" d="M22.5,81.48c0,0.33-0.26,0.59-0.59,0.59s-0.59-0.26-0.59-0.59c0-0.33,0.26-0.59,0.59-0.59
		S22.5,81.15,22.5,81.48z"/>
	<path class="st5" d="M25.19,76.76c0,0.33-0.26,0.59-0.59,0.59s-0.59-0.26-0.59-0.59c0-0.33,0.26-0.59,0.59-0.59
		S25.19,76.43,25.19,76.76z"/>
	<polygon class="st5" points="22.97,42.93 22.36,42.93 22.36,36.84 10.3,36.84 10.3,36.23 22.97,36.23 	"/>
	<g>
		<circle class="st3" cx="22.67" cy="42.68" r="0.63"/>
		<path class="st5" d="M22.67,43.62c-0.51,0-0.93-0.42-0.93-0.93c0-0.51,0.42-0.93,0.93-0.93c0.52,0,0.93,0.42,0.93,0.93
			C23.6,43.2,23.18,43.62,22.67,43.62z M22.67,42.35c-0.18,0-0.33,0.15-0.33,0.33c0,0.18,0.15,0.33,0.33,0.33
			c0.18,0,0.33-0.15,0.33-0.33C22.99,42.5,22.85,42.35,22.67,42.35z"/>
	</g>
	<polygon class="st5" points="33.52,63.93 22.2,63.93 22.2,57.01 22.81,57.01 22.81,63.33 33.52,63.33 	"/>
	<g>
		<circle class="st3" cx="22.67" cy="57.59" r="0.63"/>
		<path class="st5" d="M22.67,58.53c-0.51,0-0.93-0.42-0.93-0.93c0-0.51,0.42-0.93,0.93-0.93c0.52,0,0.93,0.42,0.93,0.93
			C23.6,58.11,23.18,58.53,22.67,58.53z M22.67,57.27c-0.18,0-0.33,0.15-0.33,0.33c0,0.18,0.15,0.33,0.33,0.33
			c0.18,0,0.33-0.15,0.33-0.33C22.99,57.41,22.85,57.27,22.67,57.27z"/>
	</g>
	<rect x="11.47" y="37.88" class="st3" width="9.85" height="2.69"/>
	<rect x="24.05" y="37.88" class="st3" width="9.39" height="2.69"/>
	<rect x="24.05" y="59.65" class="st3" width="9.39" height="2.69"/>
	<rect x="24.05" y="65.02" class="st3" width="9.39" height="2.69"/>
	<rect x="10.3" y="60.02" class="st5" width="10.43" height="0.61"/>
	<rect x="10.3" y="61.48" class="st5" width="10.43" height="0.61"/>
	<rect x="10.3" y="62.94" class="st5" width="10.43" height="0.61"/>
	<path class="st10" d="M39.65,50.47c0,0,2.9,3.39,6.6,1.8c2.83-1.22,3.69-2.87,3.69-2.87S42.46,46.65,39.65,50.47z"/>
	<path class="st2" d="M46.93,50.42c0,1.18-0.95,2.13-2.13,2.13c-1.18,0-2.13-0.95-2.13-2.13c0-1.18,0.95-2.13,2.13-2.13
		C45.97,48.29,46.93,49.24,46.93,50.42z"/>
	<path class="st0" d="M45.87,50.42c0,0.59-0.48,1.07-1.07,1.07c-0.59,0-1.07-0.48-1.07-1.07c0-0.59,0.48-1.07,1.07-1.07
		C45.39,49.35,45.87,49.83,45.87,50.42z"/>
	<path class="st1" d="M39.65,50.47c0,0,0.79-3.42,4.83-3.42s5.24,1.88,5.46,2.35C42.43,47.05,39.65,50.47,39.65,50.47z"/>
	<path class="st10" d="M46.15,49.77c0,0.29-0.23,0.52-0.52,0.52c-0.29,0-0.52-0.23-0.52-0.52c0-0.29,0.23-0.52,0.52-0.52
		C45.92,49.25,46.15,49.48,46.15,49.77z"/>
</g>
</svg>
