<?xml version="1.0" encoding="utf-8"?>
<!-- Generator: Adobe Illustrator 24.1.1, SVG Export Plug-In . SVG Version: 6.00 Build 0)  -->
<svg version="1.1" id="Layer_1" xmlns="http://www.w3.org/2000/svg" xmlns:xlink="http://www.w3.org/1999/xlink" x="0px" y="0px"
	 viewBox="0 0 512 512" style="enable-background:new 0 0 512 512;" xml:space="preserve">
<style type="text/css">
	.st0{fill:#FF7F4F;}
	.st1{fill:#DD562C;}
	.st2{fill:#FFEDB5;}
	.st3{fill:#FEE187;}
	.st4{fill:#263A7A;}
	.st5{fill:#121149;}
	.st6{fill:#FFC61B;}
	.st7{fill:#D48B07;}
</style>
<circle class="st0" cx="256" cy="256" r="256"/>
<path class="st1" d="M512,256c0-10.2-0.6-20.3-1.8-30.2L369.8,85.3L142.2,398.2L256,512l0,0C397.4,512,512,397.4,512,256z"/>
<rect x="130.5" y="79.3" class="st2" width="227.6" height="312.9"/>
<rect x="255.4" y="79.3" class="st3" width="114.3" height="312.9"/>
<g>
	<rect x="170.7" y="139.6" class="st4" width="170.7" height="5.2"/>
	<rect x="170.7" y="168.1" class="st4" width="170.7" height="5.2"/>
	<rect x="170.7" y="196.5" class="st4" width="170.7" height="5.2"/>
	<rect x="170.7" y="225" class="st4" width="170.7" height="5.2"/>
	<rect x="170.7" y="253.4" class="st4" width="170.7" height="5.2"/>
	<rect x="170.7" y="281.9" class="st4" width="170.7" height="5.2"/>
	<rect x="170.7" y="310.3" class="st4" width="56.9" height="5.2"/>
	<path class="st4" d="M358.1,363.7l-34.7-17.3L414,164.9c4.5-8.9,15.3-12.6,24.3-8.1l2.3,1.1c8.9,4.5,12.6,15.3,8.1,24.3
		L358.1,363.7z"/>
</g>
<path class="st5" d="M440.6,157.9l-1.3-0.7l-99.1,197.4l17.9,8.9l90.6-181.4C453.2,173.3,449.5,162.4,440.6,157.9z"/>
<polygon class="st6" points="358.1,363.7 329.3,377.9 323.4,346.3 "/>
<polygon class="st7" points="329.1,376.7 329.3,377.9 358.1,363.7 340.2,354.7 "/>
</svg>
