<?xml version="1.0" encoding="utf-8"?>
<!-- Generator: Adobe Illustrator 24.1.1, SVG Export Plug-In . SVG Version: 6.00 Build 0)  -->
<svg version="1.1" id="Capa_1" xmlns="http://www.w3.org/2000/svg" xmlns:xlink="http://www.w3.org/1999/xlink" x="0px" y="0px"
	 viewBox="0 0 512 512" style="enable-background:new 0 0 512 512;" xml:space="preserve">
<style type="text/css">
	.st0{fill:#FF7F4F;}
	.st1{fill:#DD562C;}
	.st2{fill:#FFFFFF;}
	.st3{fill:#E9EDF5;}
	.st4{fill:#CDD2E1;}
	.st5{fill:#AFB4C8;}
	.st6{fill:#FFCE00;}
	.st7{fill:#FDBA12;}
</style>
<g>
	<g>
		<g>
			<g>
				<g>
					<g>
						<g>
							<circle class="st0" cx="256" cy="256" r="256"/>
						</g>
					</g>
				</g>
			</g>
		</g>
	</g>
	<path class="st1" d="M512,256c0-3.7-0.1-7.4-0.2-11L351.7,84.9l-183.8,39.9l70.6,70.6l-34.9,34.1l56.1,56.1L163.3,430l81.7,81.7
		c3.6,0.2,7.3,0.2,10.9,0.2C397.4,512,512,397.4,512,256z"/>
	<g>
		<path class="st2" d="M235.9,256l-36.7,29.9c-13,10.6-20.5,26.4-20.5,43.2v12.6l77.4,1.3l77.2-1.3v-12.6c0-16.7-7.5-32.6-20.5-43.2
			L276.1,256l-20.1-2.4L235.9,256z"/>
		<path class="st2" d="M333.3,182.9v-81H178.7v81c0,2.1,0.1,4.2,0.4,6.3h153.8C333.2,187.1,333.3,185,333.3,182.9z"/>
	</g>
	<g>
		<path class="st3" d="M256.1,254.8V343l77.2-1.3v-12.6c0-16.7-7.5-32.6-20.5-43.2L276.1,256L256.1,254.8z"/>
		<path class="st3" d="M333.3,182.9v-81h-77.2v87.3h76.8C333.2,187.1,333.3,185,333.3,182.9L333.3,182.9z"/>
	</g>
	<path class="st4" d="M266.7,341.7V256h9.4l36.7-29.9c11.8-9.6,19-23.5,20.3-38.5H178.9c1.3,15,8.6,28.9,20.3,38.5l36.7,29.9h9.4
		v85.7h-66.6v68.4h154.6v-68.4H266.7z"/>
	<path class="st5" d="M266.7,341.7V256h9.4l36.7-29.9c11.8-9.6,19-23.5,20.3-38.5h-77v222.5h77.2v-68.4L266.7,341.7z"/>
	<g>
		<g>
			<g>
				<path class="st6" d="M332.2,76.1H179.8c-14.3,0-25.9,11.6-25.9,25.9s11.6,25.9,25.9,25.9c10.1,0,18.8-5.8,23.1-14.2h106.3
					c4.3,8.4,13,14.2,23.1,14.2c14.3,0,25.9-11.6,25.9-25.9C358.1,87.6,346.5,76.1,332.2,76.1z"/>
			</g>
		</g>
		<g>
			<g>
				<path class="st7" d="M332.2,76.1h-76.1v37.5h53c4.3,8.4,13,14.2,23.1,14.2c14.3,0,25.9-11.6,25.9-25.9S346.5,76.1,332.2,76.1z"
					/>
			</g>
		</g>
		<g>
			<g>
				<path class="st6" d="M179.8,435.9h152.4c14.3,0,25.9-11.6,25.9-25.9s-11.6-25.9-25.9-25.9c-10.1,0-18.8,5.8-23.1,14.2H202.9
					c-4.3-8.4-13-14.2-23.1-14.2c-14.3,0-25.9,11.6-25.9,25.9C153.9,424.4,165.5,435.9,179.8,435.9L179.8,435.9z"/>
			</g>
		</g>
		<g>
			<g>
				<path class="st6" d="M202.9,398.4c-4.3-8.4-13-14.2-23.1-14.2c-14.3,0-25.9,11.6-25.9,25.9c0,14.3,11.6,25.9,25.9,25.9h76.3
					v-37.5L202.9,398.4L202.9,398.4z"/>
				<path class="st7" d="M332.2,384.2c-10.1,0-18.8,5.8-23.1,14.2h-53v37.5h76.1c14.3,0,25.9-11.6,25.9-25.9
					C358.1,395.8,346.5,384.2,332.2,384.2z"/>
			</g>
		</g>
	</g>
</g>
</svg>
