<?xml version="1.0" encoding="utf-8"?>
<!-- Generator: Adobe Illustrator 24.1.1, SVG Export Plug-In . SVG Version: 6.00 Build 0)  -->
<svg version="1.1" id="Layer_1" xmlns="http://www.w3.org/2000/svg" xmlns:xlink="http://www.w3.org/1999/xlink" x="0px" y="0px"
	 viewBox="0 0 64 64" style="enable-background:new 0 0 64 64;" xml:space="preserve">
<style type="text/css">
	.st0{fill:#D4B830;}
	.st1{fill:#FDD83C;}
	.st2{fill:#8D6C9F;}
</style>
<path class="st0" d="M5,7.2l5.5,45.2c0.2,1.6,1.3,2.9,2.9,3.4l17.5,5c0.7,0.2,1.5,0.2,2.2,0l18.4-5c1.6-0.4,2.8-1.8,3-3.5L59,7.2
	C59.2,6,58.2,5,57,5H7C5.8,5,4.9,6.1,5,7.2z"/>
<path class="st1" d="M52.4,10H32v46c0.3,0,0.6,0,0.9-0.1l15-4.4c1.3-0.4,2.3-1.6,2.4-3L54,11.9C54.1,10.9,53.3,10,52.4,10z"/>
<path class="st2" d="M32,62c-0.5,0-0.9-0.1-1.4-0.2l-17.5-5c-2-0.6-3.4-2.2-3.6-4.2L4,7.4C3.9,6.5,4.2,5.7,4.8,5C5.3,4.4,6.2,4,7,4
	h50c0.9,0,1.7,0.4,2.2,1c0.6,0.6,0.8,1.5,0.8,2.3l-4.5,45.2c-0.2,2.1-1.7,3.8-3.7,4.3l-18.4,5C32.9,61.9,32.5,62,32,62z M7,6
	C6.7,6,6.4,6.1,6.3,6.3C6.1,6.6,6,6.8,6,7.1l0,0l5.5,45.2c0.1,1.2,1,2.2,2.2,2.5l17.5,5c0.5,0.2,1.1,0.2,1.6,0l18.4-5
	c1.2-0.3,2.1-1.4,2.2-2.6L58,7.1c0-0.3-0.1-0.6-0.3-0.8C57.6,6.1,57.3,6,57,6H7z"/>
<path d="M24,19c0,8.3,0,16.7,0,25c-3-0.7-6-1.3-9-2c0.2,2,0.4,4,0.6,6c4.5,1.3,8.9,2.5,13.4,3.8V19C27.3,19,25.7,19,24,19z"/>
<path d="M49.8,24l0.4-5c-5.1,0-10.2,0-15.3,0c0,7.3,0,14.7,0,22c3-0.7,6-1.4,8.9-2.1l-0.3,4.7c-2.9,0.8-5.8,1.6-8.6,2.3c0,2,0,4,0,6
	c4.2-1.2,8.5-2.4,12.7-3.7l1.3-15.5c-3,0.4-6,0.7-9.1,1.1c0-3.3,0-6.7,0-10C43.3,24,46.5,24,49.8,24z"/>
<path d="M29,52.8c-0.1,0-0.2,0-0.3,0L15.3,49c-0.4-0.1-0.7-0.5-0.7-0.9l-0.6-6c0-0.3,0.1-0.6,0.3-0.8c0.2-0.2,0.6-0.3,0.9-0.2
	l7.8,1.7V19c0-0.6,0.4-1,1-1h5c0.6,0,1,0.4,1,1v32.8c0,0.3-0.1,0.6-0.4,0.8C29.4,52.7,29.2,52.8,29,52.8z M16.5,47.2L28,50.5V20h-3
	v24c0,0.3-0.1,0.6-0.4,0.8C24.4,45,24.1,45,23.8,45l-7.6-1.7L16.5,47.2z"/>
<path d="M35,53c-0.2,0-0.4-0.1-0.6-0.2C34.1,52.6,34,52.3,34,52v-6c0-0.5,0.3-0.8,0.7-1l7.9-2.1l0.2-2.7L35.2,42
	c-0.3,0.1-0.6,0-0.8-0.2S34,41.3,34,41V19c0-0.6,0.4-1,1-1h15.3c0.3,0,0.5,0.1,0.7,0.3c0.2,0.2,0.3,0.5,0.3,0.8l-0.4,5
	c0,0.5-0.5,0.9-1,0.9L41,25v7.9l7.9-1c0.3,0,0.6,0.1,0.8,0.3s0.3,0.5,0.3,0.8l-1.3,15.5c0,0.4-0.3,0.8-0.7,0.9L35.3,53
	C35.2,53,35.1,53,35,53z M36,46.8v3.9l10.8-3.1L48,34l-7.8,1c-0.3,0-0.6-0.1-0.8-0.2S39,34.3,39,34V24c0-0.3,0.1-0.5,0.3-0.7
	S39.7,23,40,23l8.9,0l0.3-3H36v19.7l7.7-1.8c0.3-0.1,0.6,0,0.9,0.2c0.2,0.2,0.4,0.5,0.3,0.8l-0.3,4.7c0,0.4-0.3,0.8-0.7,0.9L36,46.8
	z"/>
</svg>
