<?xml version="1.0" encoding="utf-8"?>
<!-- Generator: Adobe Illustrator 24.0.2, SVG Export Plug-In . SVG Version: 6.00 Build 0)  -->
<svg version="1.1" id="Layer_1" xmlns="http://www.w3.org/2000/svg" xmlns:xlink="http://www.w3.org/1999/xlink" x="0px" y="0px"
	 viewBox="0 0 759.2 878.9" style="enable-background:new 0 0 759.2 878.9;" xml:space="preserve">
<style type="text/css">
	.st0{fill-rule:evenodd;clip-rule:evenodd;fill:#B4C5E6;}
	.st1{fill-rule:evenodd;clip-rule:evenodd;fill:#9FB2D9;}
	.st2{fill-rule:evenodd;clip-rule:evenodd;fill:#C0CDEA;}
	.st3{fill-rule:evenodd;clip-rule:evenodd;fill:#E4E1E8;}
	.st4{fill-rule:evenodd;clip-rule:evenodd;fill:#ADBFE3;}
	.st5{fill-rule:evenodd;clip-rule:evenodd;fill:#E1E8F6;}
	.st6{fill-rule:evenodd;clip-rule:evenodd;fill:#1874BA;}
	.st7{fill-rule:evenodd;clip-rule:evenodd;fill:#002846;}
	.st8{fill-rule:evenodd;clip-rule:evenodd;fill:#D64C47;}
	.st9{fill-rule:evenodd;clip-rule:evenodd;fill:#EE9073;}
	.st10{fill-rule:evenodd;clip-rule:evenodd;fill:#ED756E;}
	.st11{fill:#004C84;}
	.st12{fill-rule:evenodd;clip-rule:evenodd;fill:#FFFFFF;}
	.st13{fill-rule:evenodd;clip-rule:evenodd;fill:#00000F;}
	.st14{fill:#00000F;}
	.st15{fill:#101537;}
	.st16{fill:#FFFFFF;}
	.st17{fill-rule:evenodd;clip-rule:evenodd;fill:#101537;}
	.st18{fill-rule:evenodd;clip-rule:evenodd;fill:#3B405F;}
	.st19{fill:#144C5B;}
	.st20{fill:#E5335A;}
	.st21{fill:#DF0031;}
	.st22{fill:#25B1B6;}
	.st23{fill:#A6A6A6;}
	.st24{fill:#598B9D;}
	.st25{fill:#F6F4EF;}
	.st26{fill:none;stroke:#FFFFFF;stroke-width:0.5;stroke-miterlimit:10;}
	.st27{fill:#E4E0D0;}
	.st28{opacity:0.5;fill:#E9E6D9;enable-background:new    ;}
	.st29{fill:#51C1C5;}
	.st30{fill:#E9E6D9;}
	.st31{fill:#76565F;}
	.st32{fill:#FECE65;}
	.st33{fill:#2F6E85;}
	.st34{fill:#CAC8BE;}
	.st35{fill:#FEC23E;}
	.st36{fill:#FFE19E;}
	.st37{fill:#EF8098;}
	.st38{fill:#92D8DB;}
	.st39{fill:#97B6C2;}
	.st40{fill:#542C37;}
	.st41{fill:#A9959B;}
	.st42{opacity:0.44;fill:#FFFFFF;enable-background:new    ;}
	.st43{fill:#BDBAAE;}
	.st44{fill:#96BBB3;}
	.st45{fill:none;stroke:#E9E6D9;stroke-miterlimit:10;}
	.st46{fill:none;stroke:#E4E0D0;stroke-width:0.75;stroke-miterlimit:10;}
	.st47{fill:#B2B2B2;}
	.st48{fill:#B85676;}
	.st49{fill:#DCEDEE;}
	.st50{fill:#FDEEE1;}
	.st51{fill:#2D1302;}
	.st52{fill:#3A1A03;}
	.st53{fill:#1C3450;}
	.st54{fill:#282828;}
	.st55{opacity:0.4;}
	.st56{fill:#333333;}
	.st57{fill:#002846;}
	.st58{fill:#D64C47;}
	.st59{fill:#E59185;}
	.st60{fill:#F6A091;}
	.st61{fill:#D14646;}
	.st62{fill:#EFEFEF;}
	.st63{fill:#D3D3D3;}
	.st64{fill:#3F3F3F;}
</style>
<title>online library</title>
<g>
	<g id="Layer_4">
		<path class="st0" d="M759.1,494c2.8-65.1-63.5-49.6-103.5-5.6S497.8,715.7,434.2,752.7c-24.7,14.4-19.6,17.8,0.4,13.3
			C534.2,743.6,755.3,583.5,759.1,494z"/>
		<path class="st1" d="M417.9,764.8c-1.4,2.5,1.1,3.4,6.5,3c161.7-68.1,305.2-288.6,305.6-289.3c0.7-1.3,0.3-2.9-1-3.6
			c-1.2-0.7-2.6-0.4-3.4,0.7C725.2,476.3,579.8,699.8,417.9,764.8z"/>
		<path class="st1" d="M694.9,281.7c-24.4-48.6-66.5-10.4-77.9,38s-22.7,230-54.2,283c-12.2,20.5-7.1,21,5.7,9.6
			C632.1,555.3,728.5,348.6,694.9,281.7z"/>
		<path class="st0" d="M555.9,618.1c0,2.4,2.2,2.1,6-0.5c90.3-115.4,105.5-334.7,105.6-335.4c0.1-1.2-0.8-2.3-2-2.3
			c-1.2-0.1-2.3,0.8-2.3,2l0,0C663,282.5,647.6,504.8,555.9,618.1z"/>
		<path class="st1" d="M669.7,654.7c49.2,12.8,22.5,58.8-19.5,78.6c-18,8.5-58.4,21.8-102,37.3H447.5
			C515.4,707.4,620.1,641.7,669.7,654.7z"/>
		<path class="st2" d="M473,770.6c92.1-59.2,201.2-90.6,201.7-90.7c1.1-0.3,2.2,0.3,2.5,1.4c0.3,1.1-0.3,2.2-1.4,2.5
			c-0.5,0.1-105,30.2-195.3,86.8L473,770.6z"/>
		<path class="st2" d="M104.2,119.4c24.4-60.4,78.3-18.9,96.6,37.7s49.6,272.1,92.2,332.2c16.5,23.3,10.5,24.3-5.8,12
			C205.9,439.6,70.7,202.5,104.2,119.4z"/>
		<path class="st3" d="M302.9,507.1c0.3,2.9-2.4,2.7-7.1,0C176.7,378.2,137.2,118.1,137,117.3c-0.2-1.4,0.8-2.8,2.2-3s2.8,0.8,3,2.2
			C142.3,117.3,182.4,381,302.9,507.1z"/>
		<path class="st4" d="M247.4,170.9c34.7-41.9,67.2,4.8,67.4,54.4s-29.3,229.3-10.5,287.9c7.3,22.7,2.2,22-7.7,8.1
			C247.4,451.7,199.7,228.7,247.4,170.9z"/>
		<path class="st5" d="M307.7,529.9c-0.5,2.4-2.6,1.5-5.7-1.8c-62.2-132.7-28-349.9-27.9-350.5c0.2-1.2,1.3-2,2.5-1.8s2,1.3,1.8,2.5
			l0,0C278.3,178.9,243.6,399,307.7,529.9z"/>
		<path class="st1" d="M84.3,308.1c-50.8-1-37.5,50.5-2.5,81S262.1,508,292.3,557c11.7,19,14.3,15,10.4-0.5
			C283.2,479.1,154.3,309.4,84.3,308.1z"/>
		<path class="st0" d="M302,569.4c2,1.1,2.7-0.9,2.2-5.1C248,439.3,73.3,331.3,72.7,331c-1-0.6-2.2-0.3-2.8,0.7s-0.3,2.2,0.7,2.8
			l0,0C71.1,334.8,248.2,444.3,302,569.4z"/>
		<path class="st6" d="M249.6,698.8l-3.1-511.9l42-0.3l3.1,511.9c0,0.9-0.2,1.8-0.5,2.7c-4,8.8-14.8,37.6-18.7,42.9
			c-0.3,0.5-0.9,0.8-1.5,0.8c-0.6,0-1.2-0.3-1.5-0.8c-4-5.3-15.1-34-19.2-42.7C249.7,700.7,249.5,699.8,249.6,698.8z"/>
		<path class="st7" d="M249.6,698.8l-3.1-511.9l14-0.1l3.3,546.5c-4.8-10.8-10.8-25.9-13.7-31.8
			C249.7,700.7,249.5,699.8,249.6,698.8z"/>
		<path class="st8" d="M246.5,186.9l-0.2-29.6c-0.1-12.3,9.3-22.4,20.9-22.5c11.5-0.1,21.1,10,21.1,22.3l0.2,29.6L246.5,186.9z"/>
		<path class="st9" d="M291.2,700.8c0,0.2-0.1,0.3-0.2,0.5c-3.2,7-10.7,26.7-15.6,37.1c-0.9,2-1.9,4-3.1,5.8
			c-0.3,0.5-0.9,0.8-1.5,0.8c-0.6,0-1.2-0.3-1.5-0.8c-4-5.3-15.1-34-19.2-42.7l13.4-7.9l14-0.1L291.2,700.8z"/>
		<path class="st8" d="M270.8,745c-0.6,0-1.2-0.3-1.5-0.8c-4-5.3-15.1-34-19.2-42.7l13.4-7.9h7L270.8,745z"/>
		<path class="st10" d="M272.4,744.2c-0.3,0.5-0.9,0.8-1.5,0.8c-0.6,0-1.2-0.3-1.5-0.8l-5.8-50.6l14-0.1L272.4,744.2z"/>
		
			<rect x="262" y="179.6" transform="matrix(1 -5.934085e-03 5.934085e-03 1 -2.5862 1.6038)" class="st11" width="14" height="514"/>
		<path class="st12" d="M246.5,180l14-8.2l14-0.1l14,7.4l0.1,16.5c0,0.7-0.1,1.5-0.3,2.2l-13.7-7.2l-14,0.1l-13.4,7.9
			c-1,0.6-0.6-2.1-0.6-2.7L246.5,180z"/>
		<path class="st13" d="M278.7,731.2c-0.4,0.7-1.1,1.2-1.9,1.2c-1.4,0.1-2.6-1.4-2.8-4.3c-0.2-2.9-2.7-5-3.3-5c-0.6,0-3.1,2.2-3.2,5
			s-1.3,4.4-2.7,4.3c-0.8,0-1.5-0.5-1.9-1.2c1.2,2.6,2.3,5.1,3.3,7.2c0.9,2,2,3.9,3.2,5.8c0.4,0.5,0.9,0.8,1.5,0.8l0,0
			c0.6,0,1.2-0.3,1.5-0.8c1.2-1.8,2.2-3.8,3.1-5.8C276.5,736.3,277.5,733.8,278.7,731.2z"/>
		<path class="st14" d="M333.5,144.1h232c21.4,0,38.7,17.3,38.7,38.7v527c0,21.4-17.3,38.7-38.7,38.7h-232
			c-21.4,0-38.7-17.3-38.7-38.7v-527C294.8,161.4,312.1,144.1,333.5,144.1z"/>
		<path class="st14" d="M322.9,144.1h232c21.4,0,38.7,17.3,38.7,38.7v527c0,21.4-17.3,38.7-38.7,38.7h-232
			c-21.4,0-38.7-17.3-38.7-38.7v-527C284.3,161.4,301.6,144.1,322.9,144.1z"/>
		<path class="st15" d="M322.9,150.2H555c18,0,32.5,14.6,32.5,32.5c0,0,0,0,0,0v527c0,18-14.5,32.5-32.5,32.5c0,0,0,0,0,0H323
			c-18,0-32.5-14.6-32.5-32.5c0,0,0,0,0,0V182.8C290.5,164.8,305,150.2,322.9,150.2L322.9,150.2z"/>
		<path class="st16" d="M322.9,162.5h232c11.2,0,20.2,9.1,20.2,20.2v526.9c0,11.2-9.1,20.2-20.2,20.2h-232
			c-11.2,0-20.2-9.1-20.2-20.2V182.8C302.7,171.6,311.7,162.5,322.9,162.5z"/>
		<path class="st17" d="M438.9,181h-69.4c-4.9,0-8.9-4-8.9-8.9v-3.4c-1.2-3.7-4.6-6.1-8.5-6.1l8.5-3.1v-3.2h156.5v3.2l8.5,3.1
			c-3.8,0-7.3,2.5-8.5,6.1v3.4c0,4.9-4,8.9-8.9,8.9H438.9z"/>
		<path class="st13" d="M421.5,168.8c-1.3,0.1-2.5-0.9-2.6-2.3s0.9-2.5,2.3-2.6c0.1,0,0.2,0,0.3,0h45.2c1.3-0.1,2.5,0.9,2.6,2.3
			s-0.9,2.5-2.3,2.6c-0.1,0-0.2,0-0.3,0H421.5z M413.3,163.9c1.3-0.1,2.5,0.9,2.6,2.3s-0.9,2.5-2.3,2.6c-0.1,0-0.2,0-0.3,0h-2.1
			c-1.3,0.1-2.5-0.9-2.6-2.3s0.9-2.5,2.3-2.6c0.1,0,0.2,0,0.3,0H413.3z"/>
		<path class="st18" d="M5.7,745.7h695.5c3.1,0,5.7,2.9,5.7,6.4v31.6c0,3.5-2.5,6.4-5.7,6.4H5.7c-3.1,0-5.7-2.9-5.7-6.4v-31.6
			C0,748.5,2.6,745.7,5.7,745.7z"/>
		<path class="st17" d="M37.2,790.2h12.1v-33H37.2V790.2z M654.1,790.2h15.5v-33h-15.5L654.1,790.2L654.1,790.2z M345.3,790.2h301.1
			v-33H345.3L345.3,790.2L345.3,790.2z M305,790.2h15.6v-33H305L305,790.2L305,790.2z M279.5,790.2h9.2v-33h-9.2V790.2z"/>
		<path class="st18" d="M8.9,775.4c1.7-0.2,3.3,1,3.5,2.7s-1,3.3-2.7,3.5c-1.7,0.2-3.3-1-3.5-2.7c0-0.1,0-0.3,0-0.4
			C6.1,776.9,7.3,775.5,8.9,775.4z"/>
		<path class="st18" d="M662.7,803.5c1.7-0.2,3.3,1,3.5,2.7c0.2,1.7-1,3.3-2.7,3.5c-1.7,0.2-3.3-1-3.5-2.7c0-0.1,0-0.3,0-0.4
			C659.8,805,661.1,803.6,662.7,803.5z"/>
		<path class="st2" d="M353.3,78.4c3.7-3.7,9.6-3.7,13.3,0s3.7,9.6,0,13.3c-3.7,3.7-9.6,3.7-13.3,0c-1.8-1.8-2.8-4.1-2.8-6.6
			C350.5,82.5,351.5,80.2,353.3,78.4z M355.3,69.1c-2.6,0.8-5,2.1-6.9,4c-0.2,0.2-0.5,0.2-0.7,0.1l-4.4-2.5l0,0
			c-0.2-0.1-0.5-0.2-0.8-0.1c-0.3,0.1-0.5,0.3-0.7,0.5l0,0l-3.1,5.3c-0.1,0.3-0.2,0.6-0.1,0.8c0.1,0.3,0.2,0.5,0.5,0.6l0,0l4.3,2.5
			c0.2,0.1,0.3,0.4,0.3,0.6l0,0c-0.2,0.7-0.3,1.3-0.4,2c-0.1,0.7-0.1,1.3-0.1,2c0,0.7,0,1.3,0.1,2c0.1,0.7,0.2,1.3,0.4,2
			c0.1,0.3-0.1,0.5-0.3,0.6l-4.3,2.5l0,0c-0.2,0.1-0.4,0.4-0.5,0.7c-0.1,0.3,0,0.6,0.1,0.8l3.1,5.4l0,0c0.1,0.2,0.4,0.4,0.7,0.5
			c0.3,0.1,0.6,0,0.8-0.1l0,0l4.3-2.5c0.2-0.1,0.5-0.1,0.7,0.1c2,1.9,4.3,3.3,6.9,4c0.3,0.1,0.4,0.3,0.4,0.6v5
			c0,0.3,0.1,0.6,0.3,0.8c0.2,0.2,0.5,0.3,0.8,0.3h6.2c0.3,0,0.6-0.1,0.8-0.3c0.2-0.2,0.3-0.5,0.3-0.8v-5c0-0.3,0.2-0.5,0.5-0.6
			c1.3-0.4,2.5-0.9,3.7-1.6c1.2-0.7,2.3-1.5,3.2-2.4c0.2-0.2,0.5-0.2,0.7-0.1l4.3,2.5c0.2,0.1,0.5,0.2,0.8,0.1
			c0.3-0.1,0.5-0.3,0.7-0.5l0,0l3.1-5.3l0,0c0.1-0.3,0.2-0.5,0.1-0.8c-0.1-0.3-0.3-0.5-0.5-0.7l-4.4-2.5c-0.2-0.1-0.3-0.4-0.3-0.6
			l0,0c0.2-0.7,0.3-1.3,0.4-2c0.1-0.7,0.1-1.3,0.1-2c0-0.7,0-1.3-0.1-2c-0.1-0.7-0.2-1.3-0.4-2c-0.1-0.3,0.1-0.5,0.3-0.7l4.3-2.5
			c0.3-0.1,0.4-0.4,0.5-0.6c0.1-0.3,0-0.6-0.1-0.8l0,0l-3-5.4l0,0c-0.1-0.2-0.4-0.4-0.7-0.5c-0.3-0.1-0.6,0-0.8,0.1l0,0l-4.4,2.5
			c-0.2,0.1-0.5,0.1-0.7-0.1c-1-0.9-2.1-1.7-3.2-2.4c-1.2-0.7-2.4-1.2-3.7-1.6c-0.2-0.1-0.4-0.3-0.4-0.6v-5c0-0.6-0.5-1.1-1.1-1.1
			l0,0h-6.2c-0.3,0-0.6,0.1-0.8,0.3c-0.2,0.2-0.3,0.5-0.3,0.8v5C355.7,68.7,355.5,68.9,355.3,69.1L355.3,69.1z"/>
		<path class="st5" d="M83.2,176.3c2.6,0,4.7-2.1,4.7-4.7c0-2.6-2.1-4.7-4.7-4.7c-2.6,0-4.7,2.1-4.7,4.7
			C78.4,174.1,80.6,176.3,83.2,176.3z"/>
		<path class="st1" d="M114.6,250.9c-0.1-0.9-0.9-1.6-1.7-1.5c-0.8,0.1-1.4,0.7-1.5,1.5v3.8h-3.8c-0.9,0-1.6,0.7-1.6,1.6
			c0,0.9,0.7,1.6,1.6,1.6h3.8v3.8c0.1,0.9,0.9,1.6,1.7,1.5c0.8-0.1,1.4-0.7,1.5-1.5v-3.8h3.8c0.9,0,1.6-0.7,1.6-1.6
			c0-0.9-0.7-1.6-1.6-1.6h-3.8V250.9z"/>
		<path class="st1" d="M419.2,110.4c0-0.9-0.7-1.6-1.6-1.6c-0.9,0-1.6,0.7-1.6,1.6c0,0,0,0,0,0v3.8h-3.8c-0.9,0-1.6,0.7-1.6,1.6
			c0,0.9,0.7,1.6,1.6,1.6h3.8v3.8c0,0.9,0.7,1.6,1.6,1.6c0.9,0,1.6-0.7,1.6-1.6c0,0,0,0,0,0v-3.8h3.8c0.9,0,1.6-0.7,1.6-1.6
			c0-0.9-0.7-1.6-1.6-1.6h-3.8V110.4z"/>
		<path class="st1" d="M277.4,23.3c0-0.9-0.7-1.6-1.6-1.6c-0.9,0-1.6,0.7-1.6,1.6v3.8h-3.8c-0.9,0-1.6,0.7-1.6,1.6s0.7,1.6,1.6,1.6
			h3.8v3.8c0,0.9,0.7,1.6,1.6,1.6c0.9,0,1.6-0.7,1.6-1.6v-3.8h3.8c0.9,0,1.6-0.7,1.6-1.6s-0.7-1.6-1.6-1.6h-3.8V23.3z"/>
		<path class="st1" d="M752.5,727.8c-0.1-0.9-0.9-1.6-1.7-1.5c-0.8,0.1-1.4,0.7-1.5,1.5v3.8h-3.8c-0.9,0.1-1.6,0.9-1.5,1.7
			c0.1,0.8,0.7,1.4,1.5,1.5h3.8v3.8c-0.1,0.9,0.6,1.7,1.5,1.7c0.9,0.1,1.7-0.6,1.7-1.5c0-0.1,0-0.2,0-0.3v-3.8h3.8
			c0.9-0.1,1.6-0.9,1.5-1.7c-0.1-0.8-0.7-1.4-1.5-1.5h-3.8V727.8z"/>
		<path class="st5" d="M334,39.8c2.6,0,4.7-2.1,4.7-4.7c0-2.6-2.1-4.7-4.7-4.7c-2.6,0-4.7,2.1-4.7,4.7c0,0,0,0,0,0
			C329.2,37.7,331.3,39.8,334,39.8z"/>
		<path class="st5" d="M630.8,249.5c2.6,0,4.7-2.1,4.7-4.7c0-2.6-2.1-4.7-4.7-4.7c-2.6,0-4.7,2.1-4.7,4.7c0,0,0,0,0,0
			C626.1,247.4,628.2,249.5,630.8,249.5z"/>
		<path class="st2" d="M131.3,97.2c0-1.4-1.2-2.6-2.6-2.6s-2.6,1.2-2.6,2.6c0,0,0,0,0,0v6.2h-6.2c-1.4,0-2.6,1.2-2.6,2.6
			s1.2,2.6,2.6,2.6l0,0h6.2v6.2c0,1.4,1.2,2.6,2.6,2.6c1.4,0,2.6-1.2,2.6-2.6v-6.2h6.2c1.4,0,2.6-1.2,2.6-2.6s-1.2-2.6-2.6-2.6h-6.2
			V97.2z"/>
		<path class="st2" d="M693.4,200.9c0-1.4-1.2-2.6-2.6-2.6c-1.4,0-2.6,1.2-2.6,2.6c0,0,0,0,0,0v6.2H682c-1.4,0-2.6,1.2-2.6,2.6
			c0,1.4,1.2,2.6,2.6,2.6h6.2v6.2c0,1.4,1.2,2.6,2.6,2.6c1.4,0,2.6-1.2,2.6-2.6v-6.2h6.2c1.4,0,2.6-1.2,2.6-2.6
			c0-1.4-1.2-2.6-2.6-2.6h-6.2V200.9z"/>
		<path class="st2" d="M698.1,33.6c0-1.4-1.2-2.6-2.6-2.6s-2.6,1.2-2.6,2.6c0,0,0,0,0,0v6.2h-6.2c-1.4,0-2.6,1.2-2.6,2.6
			c0,1.4,1.2,2.6,2.6,2.6l0,0h6.2v6.2c0,1.4,1.2,2.6,2.6,2.6s2.6-1.2,2.6-2.6c0,0,0,0,0,0V45h6.2c1.4,0,2.6-1.2,2.6-2.6
			c0-1.4-1.2-2.6-2.6-2.6h-6.2L698.1,33.6z"/>
		<rect x="314.8" y="413" class="st19" width="247.2" height="11.2"/>
		<rect x="485.7" y="395.9" class="st20" width="66.5" height="16.9"/>
		<path class="st21" d="M542.7,412.7v-16.8c0-0.2-0.2-0.4-0.4-0.4l0,0l0,0c-0.2,0-0.4,0.2-0.4,0.4l0,0v16.8c0,0.2,0.2,0.4,0.4,0.4
			l0,0C542.6,413.1,542.7,412.9,542.7,412.7z"/>
		<path class="st21" d="M545.1,412.7v-16.8c0-0.2-0.2-0.4-0.4-0.4l0,0l0,0c-0.2,0-0.4,0.2-0.4,0.4v16.8c0,0.2,0.2,0.4,0.4,0.4l0,0
			C545,413.1,545.1,412.9,545.1,412.7z"/>
		<path class="st21" d="M490.4,412.7v-16.8c0-0.2-0.2-0.4-0.4-0.4l0,0l0,0c-0.2,0-0.4,0.2-0.4,0.4v16.8c0,0.2,0.2,0.4,0.4,0.4l0,0
			C490.2,413.1,490.4,412.9,490.4,412.7z"/>
		<path class="st21" d="M492.8,412.7v-16.8c0-0.2-0.2-0.4-0.4-0.4c0,0,0,0,0,0l0,0c-0.2,0-0.4,0.2-0.4,0.4l0,0v16.8
			c0,0.2,0.2,0.4,0.4,0.4l0,0C492.6,413.1,492.8,412.9,492.8,412.7z"/>
		<path class="st22" d="M538.2,403.3v2.1c0,1.8-1.4,3.2-3.2,3.2h-33.8c-1.8,0-3.2-1.4-3.2-3.2v-2.1c0-1.8,1.4-3.2,3.2-3.2H535
			C536.8,400.1,538.2,401.5,538.2,403.3z"/>
		
			<rect x="444.5" y="394.7" transform="matrix(0.9073 -0.4204 0.4204 0.9073 -123.6119 235.5282)" class="st23" width="56" height="7"/>
		
			<rect x="461.4" y="391.8" transform="matrix(0.9073 -0.4204 0.4204 0.9073 -121.2874 238.5754)" class="st16" width="38.2" height="5.3"/>
		
			<rect x="466.9" y="392.5" transform="matrix(0.9073 -0.4204 0.4204 0.9073 -121.2891 238.5767)" class="st22" width="27.4" height="3.8"/>
		
			<rect x="494.1" y="383.7" transform="matrix(0.9073 -0.4204 0.4204 0.9073 -116.8185 244.4506)" class="st24" width="4" height="7"/>
		
			<rect x="446.5" y="403.7" transform="matrix(0.9073 -0.4204 0.4204 0.9073 -129.2289 228.1524)" class="st24" width="13" height="7"/>
		
			<rect x="443.7" y="394.8" transform="matrix(0.9073 -0.4204 0.4204 0.9073 -123.0097 235.0684)" class="st25" width="56" height="3.5"/>
		
			<rect x="432.7" y="398.7" transform="matrix(0.909 -0.4168 0.4168 0.909 -125.9959 224.8796)" class="st21" width="38.7" height="4.6"/>
		
			<rect x="435.8" y="405.6" transform="matrix(0.909 -0.4168 0.4168 0.909 -129.4359 220.3105)" class="st26" width="8.1" height="2"/>
		
			<rect x="447.8" y="399.4" transform="matrix(0.909 -0.4168 0.4168 0.909 -125.3801 225.7042)" class="st27" width="13" height="1.3"/>
		<path class="st26" d="M468.2,393.8c-0.2-0.5-0.7-0.8-1.2-0.7c-0.5,0.2-0.8,0.7-0.7,1.2c0,0.1,0.1,0.2,0.1,0.3
			c0.2,0.5,0.8,0.7,1.3,0.5C468.2,394.9,468.4,394.3,468.2,393.8z"/>
		
			<rect x="432.2" y="398.8" transform="matrix(0.909 -0.4168 0.4168 0.909 -125.6081 224.5855)" class="st28" width="38.7" height="2.3"/>
		<rect x="501.9" y="386.4" class="st29" width="33.6" height="4.6"/>
		<rect x="517.5" y="387.5" class="st30" width="14.7" height="2.4"/>
		<rect x="501.9" y="386.4" class="st31" width="4.4" height="4.6"/>
		<rect x="501.9" y="386.4" class="st30" width="33.6" height="2.3"/>
		<rect x="496" y="391.1" class="st32" width="41.2" height="4.7"/>
		<rect x="500.4" y="392.3" class="st30" width="32.5" height="2.3"/>
		<rect x="496" y="391.1" class="st33" width="18.8" height="4.7"/>
		<rect x="496" y="391.1" class="st30" width="41.2" height="2.3"/>
		<rect x="353.4" y="357.6" class="st34" width="4.7" height="55.5"/>
		<rect x="353.4" y="380" class="st22" width="4.7" height="33.1"/>
		<path class="st35" d="M355.8,361L355.8,361c-0.6,0-1.1,0.5-1.1,1.1l0,0v14.6h2.3v-14.6C356.9,361.5,356.4,361,355.8,361z"/>
		<rect x="353.4" y="357.6" class="st30" width="2.3" height="55.5"/>
		<circle class="st36" cx="355.7" cy="410.2" r="1.1"/>
		<rect x="358.1" y="357.6" class="st20" width="4.7" height="55.5"/>
		<rect x="358.1" y="380" class="st33" width="4.7" height="33.1"/>
		<path class="st33" d="M360.5,361L360.5,361c-0.6,0-1.1,0.5-1.1,1.1c0,0,0,0,0,0v14.6h2.3v-14.6C361.6,361.5,361.1,361,360.5,361z"
			/>
		<circle class="st37" cx="360.4" cy="410.2" r="1.1"/>
		<rect x="362.8" y="357.6" class="st35" width="4.7" height="55.5"/>
		<rect x="362.8" y="380" class="st20" width="4.7" height="33.1"/>
		<path class="st22" d="M365.1,361L365.1,361c-0.6,0-1.1,0.5-1.1,1.1c0,0,0,0,0,0v14.6h2.3v-14.6C366.3,361.5,365.8,361,365.1,361
			L365.1,361z"/>
		<circle class="st38" cx="365.1" cy="410.2" r="1.1"/>
		<rect x="367.3" y="357.6" class="st34" width="4.7" height="55.5"/>
		<rect x="367.3" y="380" class="st22" width="4.7" height="33.1"/>
		<path class="st33" d="M369.7,361L369.7,361c-0.6,0-1.1,0.5-1.1,1.1c0,0,0,0,0,0v14.6h2.3v-14.6C370.8,361.5,370.3,361,369.7,361z"
			/>
		<rect x="367.3" y="357.6" class="st30" width="2.3" height="55.5"/>
		<circle class="st39" cx="369.6" cy="410.2" r="1.1"/>
		
			<rect x="384.2" y="359.4" transform="matrix(0.898 -0.4399 0.4399 0.898 -130.9169 209.5539)" class="st34" width="4.7" height="55.5"/>
		
			<rect x="389.2" y="380.7" transform="matrix(0.898 -0.4399 0.4399 0.898 -134.8455 212.7533)" class="st22" width="4.7" height="33.1"/>
		<path class="st40" d="M375.9,365.3L375.9,365.3c-0.6,0.3-0.8,1-0.5,1.5l6.4,13.1l2-1l-6.4-13.1C377.1,365.2,376.4,365,375.9,365.3
			z"/>
		
			<rect x="384.4" y="360" transform="matrix(0.898 -0.4399 0.4399 0.898 -131.2632 209.1308)" class="st30" width="2.3" height="55.5"/>
		<path class="st41" d="M398.5,409c-0.3-0.5-0.9-0.8-1.5-0.5c-0.5,0.3-0.8,0.9-0.5,1.5c0.3,0.5,0.9,0.8,1.5,0.5c0,0,0,0,0,0
			C398.5,410.2,398.7,409.5,398.5,409z"/>
		<rect x="401" y="356" class="st20" width="6.7" height="57.1"/>
		<path class="st32" d="M407.6,403.3H401c-0.2,0-0.3,0.1-0.3,0.3l0,0c0,0.2,0.1,0.3,0.3,0.3h6.6c0.2,0,0.3-0.1,0.3-0.3l0,0
			C407.9,403.4,407.8,403.3,407.6,403.3z"/>
		<path class="st32" d="M407.6,405.5H401c-0.2,0-0.3,0.1-0.3,0.3c0,0,0,0,0,0l0,0c0,0.2,0.1,0.3,0.3,0.3h6.6c0.2,0,0.3-0.1,0.3-0.3
			l0,0C407.9,405.6,407.8,405.5,407.6,405.5C407.6,405.5,407.6,405.5,407.6,405.5z"/>
		<path class="st32" d="M406.9,404.7c0,1.4-1.1,2.6-2.6,2.6s-2.6-1.1-2.6-2.6s1.1-2.6,2.6-2.6c0,0,0,0,0,0
			C405.8,402.1,406.9,403.3,406.9,404.7z"/>
		<circle cx="404.4" cy="404.7" r="2.2"/>
		<path class="st35" d="M406.1,404.7c0,0.9-0.7,1.7-1.7,1.8s-1.7-0.7-1.8-1.7c0-0.9,0.7-1.7,1.7-1.8c0,0,0,0,0,0
			C405.3,403,406.1,403.7,406.1,404.7z"/>
		<path d="M405.7,404.7c0,0.7-0.6,1.3-1.3,1.3c-0.7,0-1.3-0.6-1.3-1.3c0-0.7,0.6-1.3,1.3-1.3c0,0,0,0,0,0
			C405.1,403.4,405.7,404,405.7,404.7L405.7,404.7z"/>
		<path class="st32" d="M407.6,363H401c-0.2,0-0.3,0.1-0.3,0.3l0,0c0,0.2,0.1,0.3,0.3,0.3h6.6c0.2,0,0.3-0.1,0.3-0.3l0,0
			C407.9,363.1,407.8,363,407.6,363z"/>
		<path class="st32" d="M407.6,365.2H401c-0.2,0-0.3,0.1-0.3,0.3l0,0c0,0.2,0.1,0.3,0.3,0.3h6.6c0.2,0,0.3-0.1,0.3-0.3l0,0
			C407.9,365.4,407.8,365.2,407.6,365.2z"/>
		<path class="st32" d="M406.9,364.4c0,1.4-1.1,2.6-2.6,2.6s-2.6-1.1-2.6-2.6c0-1.4,1.1-2.6,2.6-2.6c0,0,0,0,0,0
			C405.8,361.8,406.9,363,406.9,364.4z"/>
		<circle cx="404.4" cy="364.4" r="2.2"/>
		<path class="st35" d="M406.1,364.4c0,0.9-0.8,1.7-1.7,1.7c-0.9,0-1.7-0.8-1.7-1.7s0.8-1.7,1.7-1.7l0,0
			C405.3,362.7,406.1,363.4,406.1,364.4z"/>
		<path d="M405.7,364.4c0,0.7-0.6,1.3-1.3,1.3c-0.7,0-1.3-0.6-1.3-1.3c0-0.7,0.6-1.3,1.3-1.3c0,0,0,0,0,0
			C405.1,363.1,405.7,363.7,405.7,364.4L405.7,364.4z"/>
		<rect x="423" y="363.6" class="st35" width="9.4" height="49.5"/>
		<rect x="423" y="410.6" class="st21" width="9.4" height="0.9"/>
		<rect x="423" y="408.5" class="st35" width="9.4" height="0.9"/>
		<rect x="423" y="406.2" class="st22" width="9.4" height="0.9"/>
		<rect x="427.1" y="367.1" class="st22" width="5.3" height="26.4"/>
		<rect x="427.1" y="367.1" class="st21" width="5.3" height="23.1"/>
		<rect x="427.1" y="367.1" class="st22" width="5.3" height="18.2"/>
		<rect x="407.9" y="350" class="st22" width="15" height="63.3"/>
		<path class="st33" d="M408.4,358.6h14c0.6,0,1,0.4,1,1v0.6c0,0.6-0.4,1-1,1h-14c-0.6,0-1-0.4-1-1v-0.6
			C407.4,359,407.8,358.6,408.4,358.6z"/>
		<path class="st33" d="M408.4,403.4h14c0.6,0,1,0.4,1,1v0.6c0,0.6-0.4,1-1,1h-14c-0.6,0-1-0.4-1-1v-0.6
			C407.4,403.8,407.8,403.4,408.4,403.4z"/>
		<rect x="411.6" y="364" class="st35" width="7.5" height="36.9"/>
		<path class="st42" d="M407.8,350v8.8c-0.6,0.5-0.6,1.4-0.1,2c0,0,0.1,0.1,0.1,0.1v42.7c-0.6,0.5-0.6,1.4-0.1,2
			c0,0,0.1,0.1,0.1,0.1v7.5h7.3V350H407.8z"/>
		<rect x="319.1" y="369.8" class="st35" width="16.9" height="43.1"/>
		<rect x="323.4" y="383.9" class="st16" width="8.5" height="16.8"/>
		<rect x="336.4" y="355.2" class="st22" width="11.7" height="57.7"/>
		<rect x="340.9" y="364.8" class="st32" width="2.9" height="24"/>
		<rect x="336.4" y="355.2" class="st27" width="5.9" height="57.7"/>
		<rect x="348.4" y="357.4" class="st20" width="4.7" height="55.5"/>
		<path class="st37" d="M350.7,359.8L350.7,359.8c-0.9,0-1.7,0.8-1.7,1.7v12.9c0,0.9,0.8,1.7,1.7,1.7l0,0c0.9,0,1.7-0.8,1.7-1.7
			v-12.9C352.4,360.6,351.6,359.8,350.7,359.8z"/>
		<rect x="348.4" y="379.8" class="st35" width="4.7" height="33.1"/>
		<rect x="314.8" y="291" class="st19" width="247.2" height="11.2"/>
		<rect x="325.9" y="227.8" class="st22" width="16.9" height="63.3"/>
		<path class="st33" d="M326.4,236.4h16c0.6,0,1,0.4,1,1v0.6c0,0.6-0.4,1-1,1h-16c-0.6,0-1-0.4-1-1v-0.6
			C325.4,236.8,325.8,236.4,326.4,236.4z"/>
		<path class="st33" d="M326.4,281.2h16c0.6,0,1,0.4,1,1v0.6c0,0.6-0.4,1-1,1h-16c-0.6,0-1-0.4-1-1v-0.6
			C325.4,281.6,325.8,281.2,326.4,281.2z"/>
		<rect x="330.1" y="241.8" class="st35" width="8.5" height="36.9"/>
		<path class="st42" d="M325.9,227.8v8.8c-0.6,0.4-0.7,1.2-0.3,1.8c0.1,0.1,0.2,0.2,0.3,0.3v42.7c-0.6,0.4-0.7,1.2-0.3,1.8
			c0.1,0.1,0.2,0.2,0.3,0.3v7.5h8.2v-63.3H325.9z"/>
		<rect x="491.5" y="248" class="st35" width="16.9" height="43.1"/>
		<path class="st27" d="M508.3,257.5h-16.8c-0.2,0-0.4,0.2-0.4,0.4l0,0l0,0c0,0.2,0.2,0.4,0.4,0.4h16.8c0.2,0,0.4-0.2,0.4-0.4l0,0
			C508.7,257.6,508.6,257.5,508.3,257.5L508.3,257.5z"/>
		<path class="st27" d="M508.3,255h-16.8c-0.2,0-0.4,0.2-0.4,0.4c0,0,0,0,0,0l0,0c0,0.2,0.2,0.4,0.4,0.4l0,0h16.8
			c0.2,0,0.4-0.2,0.4-0.4l0,0l0,0C508.7,255.2,508.6,255.1,508.3,255C508.4,255.1,508.4,255,508.3,255z"/>
		<path class="st27" d="M508.3,286.4h-16.8c-0.2,0-0.4,0.2-0.4,0.4c0,0,0,0,0,0l0,0c0,0.2,0.2,0.4,0.4,0.4l0,0h16.8
			c0.2,0,0.4-0.2,0.4-0.4l0,0l0,0C508.7,286.6,508.6,286.4,508.3,286.4C508.4,286.4,508.4,286.4,508.3,286.4z"/>
		<path class="st27" d="M508.3,284h-16.8c-0.2,0-0.4,0.2-0.4,0.4l0,0l0,0c0,0.2,0.2,0.4,0.4,0.4l0,0h16.8c0.2,0,0.4-0.2,0.4-0.4l0,0
			l0,0C508.7,284.2,508.6,284,508.3,284L508.3,284z"/>
		<rect x="495.7" y="262" class="st16" width="8.5" height="16.8"/>
		
			<rect x="346.1" y="216.2" transform="matrix(0.9942 -0.108 0.108 0.9942 -25.3345 39.2364)" class="st43" width="7" height="74.7"/>
		<path class="st21" d="M353.2,287.2L353.2,287.2c-1,0.1-1.8-0.6-1.9-1.6l-5.4-49.4c-0.1-1,0.6-1.8,1.6-1.9l0,0
			c1-0.1,1.8,0.6,1.9,1.6l5.4,49.4C354.8,286.2,354.2,287.1,353.2,287.2z"/>
		<path class="st21" d="M347.9,224.1c0.1,0.8-0.5,1.6-1.4,1.7s-1.6-0.5-1.7-1.4s0.5-1.6,1.4-1.7c0,0,0,0,0,0
			C347,222.7,347.8,223.3,347.9,224.1z"/>
		<polygon class="st43" points="342,216.8 350.1,291.1 353.1,290.8 345.3,216.4 		"/>
		<polygon class="st33" points="472,291.1 465.3,289.1 480.5,236.8 487.3,238.8 		"/>
		<path class="st44" d="M469.7,286.7L469.7,286.7c-0.9-0.3-1.5-1.2-1.2-2.2l8.3-28.3c0.3-0.9,1.2-1.5,2.2-1.2l0,0
			c0.9,0.3,1.5,1.2,1.2,2.2l-8.3,28.3C471.6,286.5,470.6,287,469.7,286.7z"/>
		<path class="st44" d="M483.2,245.8c-0.2,0.8-1.1,1.3-1.9,1c-0.8-0.2-1.3-1.1-1-1.9c0.2-0.8,1.1-1.3,1.9-1c0,0,0,0,0,0
			C483,244.1,483.4,245,483.2,245.8z"/>
		<polygon class="st43" points="480.5,236.8 465.3,289.1 468.2,290 483.7,237.7 		"/>
		
			<rect x="353.2" y="218.9" transform="matrix(0.9939 -0.1099 0.1099 0.9939 -25.8322 40.9392)" class="st35" width="10.5" height="71.9"/>
		
			<rect x="355.8" y="231" transform="matrix(0.9939 -0.1099 0.1099 0.9939 -25.5334 40.8887)" class="st16" width="4.6" height="42.2"/>
		
			<rect x="357" y="232.5" transform="matrix(0.9939 -0.1099 0.1099 0.9939 -25.5327 40.8904)" class="st22" width="2.2" height="39.1"/>
		
			<rect x="356.7" y="286.1" transform="matrix(0.9939 -0.1099 0.1099 0.9939 -29.3394 41.5236)" class="st16" width="10.5" height="1.5"/>
		
			<rect x="349.8" y="219.1" transform="matrix(0.9939 -0.1099 0.1099 0.9939 -22.4737 40.3794)" class="st35" width="10.5" height="10"/>
		
			<rect x="356.4" y="283.6" transform="matrix(0.9939 -0.1099 0.1099 0.9939 -29.0657 41.4783)" class="st35" width="10.5" height="1.5"/>
		<rect x="369.7" y="278.6" class="st20" width="60.2" height="12.5"/>
		<rect x="372.5" y="278.6" class="st22" width="5.6" height="12.5"/>
		<polygon class="st35" points="406.8,291.1 413.6,291.1 426.1,278.6 419.2,278.6 		"/>
		<polygon class="st21" points="398.1,291.1 405,291.1 417.5,278.6 410.6,278.6 		"/>
		<path class="st16" d="M375.3,283.1c1,0,1.8,0.8,1.8,1.8s-0.8,1.8-1.8,1.8c-1,0-1.8-0.8-1.8-1.8S374.3,283.1,375.3,283.1
			L375.3,283.1z"/>
		<rect x="424" y="278.6" class="st22" width="5.8" height="12.5"/>
		<rect x="380.4" y="283.2" class="st16" width="17.5" height="3.3"/>
		<rect x="378.7" y="263.5" class="st35" width="51.9" height="15.1"/>
		<rect x="386.1" y="267.7" width="30.6" height="6.6"/>
		<rect x="386.7" y="268.1" class="st43" width="29.5" height="5.7"/>
		<rect x="420.3" y="263.5" class="st22" width="5.4" height="15.1"/>
		<rect x="381.7" y="263.5" class="st22" width="2.5" height="15.1"/>
		<path d="M427.9,270.6c0,1.5-2.2,2.8-4.9,2.8s-4.9-1.3-4.9-2.8s2.2-2.8,4.9-2.8S427.9,269,427.9,270.6z"/>
		<path class="st43" d="M427.1,270.6c0,1.3-1.8,2.3-4.1,2.3s-4.1-1-4.1-2.3s1.8-2.4,4.1-2.4S427.1,269.3,427.1,270.6z"/>
		<rect x="378.7" y="263.4" class="st27" width="51.9" height="7.8"/>
		<rect x="375" y="256.4" class="st23" width="56" height="7"/>
		<rect x="392.8" y="257.3" class="st16" width="38.2" height="5.3"/>
		<rect x="427.1" y="256.4" class="st20" width="4" height="7"/>
		<rect x="375" y="256.4" class="st20" width="13" height="7"/>
		<rect x="375" y="256.4" class="st25" width="56" height="3.5"/>
		
			<rect x="457.1" y="262.1" transform="matrix(0.2787 -0.9604 0.9604 0.2787 93.5316 655.2256)" class="st40" width="51.6" height="6.5"/>
		
			<rect x="467.6" y="255" transform="matrix(0.2787 -0.9604 0.9604 0.2787 102.7495 651.744)" class="st22" width="35.2" height="4.9"/>
		
			<rect x="487.8" y="239.1" transform="matrix(0.2787 -0.9604 0.9604 0.2787 120.478 645.0312)" class="st29" width="3.6" height="6.5"/>
		
			<rect x="471.5" y="281.2" transform="matrix(0.2787 -0.9604 0.9604 0.2787 71.251 663.6601)" class="st29" width="11.9" height="6.5"/>
		
			<rect x="455.6" y="263.3" transform="matrix(0.2787 -0.9604 0.9604 0.2787 92.8493 653.4036)" class="st25" width="51.6" height="3.2"/>
		<rect x="459" y="252.4" class="st20" width="4.6" height="38.7"/>
		<rect x="460.3" y="281.1" class="st26" width="2" height="8.1"/>
		<rect x="460.6" y="262.8" class="st22" width="1.3" height="13"/>
		<circle class="st26" cx="461.4" cy="255" r="1"/>
		<rect x="459" y="252.4" class="st30" width="2.3" height="38.7"/>
		<rect x="433.1" y="233.4" class="st20" width="11.7" height="57.7"/>
		<rect x="437.6" y="257.5" class="st45" width="2.9" height="24"/>
		<rect x="436.9" y="284.1" class="st46" width="4.3" height="4.3"/>
		<rect x="433.1" y="233.4" class="st34" width="11.7" height="19.6"/>
		<rect x="508.8" y="233.4" class="st22" width="11.7" height="57.7"/>
		<rect x="513.2" y="243" class="st32" width="2.9" height="24"/>
		<path class="st35" d="M514.7,240.3L514.7,240.3c1.2,0,2.1-0.9,2.1-2.1c0,0,0,0,0,0l0,0c0-1.2-0.9-2.1-2.1-2.1l0,0
			c-1.2,0-2.1,0.9-2.1,2.1l0,0C512.5,239.4,513.5,240.3,514.7,240.3C514.7,240.3,514.7,240.3,514.7,240.3z"/>
		<rect x="508.8" y="271.5" class="st35" width="11.7" height="19.6"/>
		<rect x="511.4" y="273.8" class="st22" width="6.6" height="14.9"/>
		<rect x="508.8" y="233.4" class="st27" width="5.9" height="57.7"/>
		<rect x="445.8" y="257.5" class="st20" width="4.6" height="33.6"/>
		<rect x="446.9" y="260.8" class="st30" width="2.4" height="14.7"/>
		<rect x="445.8" y="286.7" class="st31" width="4.6" height="4.4"/>
		<rect x="445.8" y="257.5" class="st30" width="2.3" height="33.6"/>
		<rect x="451.2" y="253.7" class="st35" width="7" height="37.4"/>
		<rect x="452.3" y="261.4" class="st22" width="4.8" height="29.7"/>
		<rect x="453.4" y="263.2" class="st16" width="2.8" height="26.1"/>
		<polygon class="st22" points="452.9,259.5 454.8,256.3 456.6,259.5 		"/>
		<rect x="451.2" y="253.7" class="st27" width="3.5" height="37.4"/>
		<rect x="520.7" y="235.6" class="st20" width="4.7" height="55.5"/>
		<path class="st37" d="M523.1,238L523.1,238c-0.9,0-1.7,0.8-1.7,1.7v12.9c0,0.9,0.8,1.7,1.7,1.7l0,0c0.9,0,1.7-0.8,1.7-1.7v-12.9
			C524.7,238.7,524,238,523.1,238z"/>
		<rect x="520.7" y="258" class="st34" width="4.7" height="33.1"/>
		<rect x="520.7" y="235.6" class="st30" width="2.3" height="55.5"/>
		<path class="st20" d="M558.2,278.5h-30.9v0.8h30.2c0,0,3,0.8,3,5.1c0,4.9-3,5.9-3,5.9h-30.2v0.8h30.9c1.2,0,4.8-2.2,4.8-6.2
			S559.5,278.5,558.2,278.5z"/>
		<path class="st47" d="M558.4,290.3h-28.7c0,0,1.4-0.2,1.4-5.6c0-4.9-1.4-5.4-1.4-5.4h28.7c0,0,2.1,0.4,2.1,5.4
			C560.5,289.9,558.4,290.3,558.4,290.3z"/>
		<path class="st34" d="M557.5,290.3h-28.7c0,0,1.4-0.2,1.4-5.6c0-4.9-1.4-5.4-1.4-5.4h28.7c0,0,2.1,0.4,2.1,5.4
			C559.6,289.9,557.5,290.3,557.5,290.3z"/>
		<path class="st30" d="M527.3,278.5v0.8h1.5c0,0,1.4,0.5,1.4,5.4c0,5.3-1.4,5.6-1.4,5.6h-1.5v0.8h9.1c0,0,2.9-0.4,2.8-6.4
			s-2.8-6.2-2.8-6.2H527.3z"/>
		<polygon class="st21" points="552.6,287.9 551.4,286.8 550.3,287.9 550.3,284 552.6,284 		"/>
		<rect x="528" y="273.9" class="st29" width="33.6" height="4.6"/>
		<rect x="543.5" y="275" class="st30" width="14.7" height="2.4"/>
		<rect x="528" y="273.9" class="st31" width="4.4" height="4.6"/>
		<rect x="528" y="273.9" class="st30" width="33.6" height="2.3"/>
		
			<rect x="541.6" y="244.4" transform="matrix(0.4168 -0.909 0.909 0.4168 77.5208 648.2405)" class="st21" width="4.6" height="38.7"/>
		
			<rect x="555.1" y="265.2" transform="matrix(0.4168 -0.909 0.909 0.4168 79.5651 662.5783)" class="st26" width="2" height="8.1"/>
		
			<rect x="541.1" y="256.2" transform="matrix(0.4168 -0.909 0.909 0.4168 77.161 645.6565)" class="st27" width="1.3" height="13"/>
		<path class="st26" d="M527.8,256.5c0.2-0.5,0.8-0.7,1.3-0.5c0.5,0.2,0.7,0.8,0.5,1.3c-0.2,0.5-0.8,0.7-1.3,0.5c0,0,0,0,0,0
			C527.7,257.5,527.5,257,527.8,256.5z"/>
		
			<rect x="543.3" y="243.3" transform="matrix(0.4168 -0.909 0.909 0.4168 78.7655 648.071)" class="st28" width="2.3" height="38.7"/>
		<path class="st32" d="M407.6,550.1H401c-0.2,0-0.3,0.1-0.3,0.3l0,0c0,0.2,0.1,0.3,0.3,0.3h6.6c0.2,0,0.3-0.1,0.3-0.3l0,0
			C407.9,550.2,407.8,550.1,407.6,550.1z"/>
		<path class="st32" d="M407.6,552.3H401c-0.2,0-0.3,0.1-0.3,0.3l0,0c0,0.2,0.1,0.3,0.3,0.3h6.6c0.2,0,0.3-0.1,0.3-0.3l0,0
			C407.9,552.4,407.8,552.3,407.6,552.3z"/>
		<path class="st32" d="M406.9,551.5c0,1.4-1.1,2.6-2.6,2.6s-2.6-1.1-2.6-2.6s1.1-2.6,2.6-2.6c0,0,0,0,0,0
			C405.8,548.9,406.9,550.1,406.9,551.5z"/>
		<circle cx="404.4" cy="551.5" r="2.2"/>
		<path class="st35" d="M406.1,551.5c0,0.9-0.8,1.7-1.7,1.7s-1.7-0.8-1.7-1.7s0.8-1.7,1.7-1.7h0
			C405.3,549.8,406.1,550.5,406.1,551.5z"/>
		<path d="M405.7,551.5c0,0.7-0.6,1.3-1.3,1.3c-0.7,0-1.3-0.6-1.3-1.3c0-0.7,0.6-1.3,1.3-1.3c0,0,0,0,0,0
			C405.1,550.2,405.7,550.8,405.7,551.5z"/>
		<rect x="314.8" y="658.4" class="st19" width="247.2" height="11.2"/>
		<rect x="485.7" y="641.2" class="st20" width="66.5" height="16.9"/>
		<path class="st21" d="M542.7,658.1v-16.8c0-0.2-0.2-0.4-0.4-0.4l0,0c-0.2,0-0.4,0.2-0.4,0.4v16.8c0,0.2,0.2,0.4,0.4,0.4l0,0l0,0
			C542.5,658.4,542.7,658.3,542.7,658.1L542.7,658.1z"/>
		<path class="st21" d="M545.1,658.1v-16.8c0-0.2-0.2-0.4-0.4-0.4l0,0c-0.2,0-0.4,0.2-0.4,0.4v16.8c0,0.2,0.2,0.4,0.4,0.4l0,0
			C545,658.4,545.1,658.3,545.1,658.1L545.1,658.1z"/>
		<path class="st21" d="M490.4,658.1v-16.8c0-0.2-0.2-0.4-0.4-0.4l0,0c-0.2,0-0.4,0.2-0.4,0.4v16.8c0,0.2,0.2,0.4,0.4,0.4l0,0
			C490.2,658.4,490.4,658.3,490.4,658.1L490.4,658.1z"/>
		<path class="st21" d="M492.8,658.1v-16.8c0-0.2-0.2-0.4-0.4-0.4l0,0l0,0c-0.2,0-0.4,0.2-0.4,0.4v16.8c0,0.2,0.2,0.4,0.4,0.4l0,0
			l0,0C492.6,658.4,492.8,658.3,492.8,658.1C492.8,658.1,492.8,658.1,492.8,658.1z"/>
		<path class="st22" d="M538.2,648.6v2.1c0,1.8-1.4,3.2-3.2,3.2h-33.8c-1.8,0-3.2-1.4-3.2-3.2v-2.1c0-1.8,1.4-3.2,3.2-3.2H535
			C536.8,645.4,538.2,646.9,538.2,648.6z"/>
		
			<rect x="444.4" y="640" transform="matrix(0.9073 -0.4204 0.4204 0.9073 -226.7578 258.2548)" class="st23" width="56" height="7"/>
		
			<rect x="461.4" y="637.1" transform="matrix(0.9073 -0.4204 0.4204 0.9073 -224.4358 261.3088)" class="st16" width="38.2" height="5.3"/>
		
			<rect x="466.9" y="637.9" transform="matrix(0.9073 -0.4204 0.4204 0.9073 -224.4375 261.3101)" class="st22" width="27.4" height="3.8"/>
		
			<rect x="494.1" y="629.1" transform="matrix(0.9073 -0.4204 0.4204 0.9073 -219.9643 267.1772)" class="st24" width="4" height="7"/>
		
			<rect x="446.5" y="649.1" transform="matrix(0.9073 -0.4204 0.4204 0.9073 -232.3772 250.8858)" class="st24" width="13" height="7"/>
		
			<rect x="443.7" y="640.2" transform="matrix(0.9073 -0.4204 0.4204 0.9073 -226.158 257.8018)" class="st25" width="56" height="3.5"/>
		
			<rect x="432.7" y="644.1" transform="matrix(0.909 -0.4168 0.4168 0.909 -228.2452 247.2065)" class="st21" width="38.7" height="4.6"/>
		
			<rect x="435.8" y="650.9" transform="matrix(0.909 -0.4168 0.4168 0.909 -231.6767 242.6382)" class="st26" width="8.1" height="2"/>
		
			<rect x="447.8" y="644.7" transform="matrix(0.909 -0.4168 0.4168 0.909 -227.6251 248.0302)" class="st27" width="13" height="1.3"/>
		<path class="st26" d="M468.2,639.1c-0.2-0.5-0.8-0.7-1.3-0.5c-0.5,0.2-0.7,0.8-0.5,1.3c0.2,0.5,0.8,0.7,1.3,0.5
			C468.2,640.2,468.4,639.7,468.2,639.1C468.2,639.1,468.2,639.1,468.2,639.1z"/>
		
			<rect x="432.2" y="644.1" transform="matrix(0.909 -0.4168 0.4168 0.909 -227.8498 246.9089)" class="st28" width="38.7" height="2.3"/>
		<rect x="501.9" y="631.8" class="st29" width="33.6" height="4.6"/>
		<rect x="517.5" y="632.9" class="st30" width="14.7" height="2.4"/>
		<rect x="501.9" y="631.8" class="st31" width="4.4" height="4.6"/>
		<rect x="501.9" y="631.8" class="st30" width="33.6" height="2.3"/>
		<rect x="496" y="636.5" class="st32" width="41.2" height="4.7"/>
		<rect x="500.4" y="637.7" class="st30" width="32.5" height="2.3"/>
		<rect x="496" y="636.5" class="st33" width="18.8" height="4.7"/>
		<rect x="496" y="636.5" class="st30" width="41.2" height="2.3"/>
		<rect x="353.4" y="602.9" class="st34" width="4.7" height="55.5"/>
		<rect x="353.4" y="625.3" class="st22" width="4.7" height="33.1"/>
		<path class="st35" d="M355.8,606.3L355.8,606.3c-0.6,0-1.1,0.5-1.1,1.1v14.6h2.3v-14.6C356.9,606.8,356.4,606.3,355.8,606.3
			L355.8,606.3z"/>
		<rect x="353.4" y="602.9" class="st30" width="2.3" height="55.5"/>
		<circle class="st36" cx="355.7" cy="655.6" r="1.1"/>
		<rect x="358.1" y="602.9" class="st20" width="4.7" height="55.5"/>
		<rect x="358.1" y="625.3" class="st33" width="4.7" height="33.1"/>
		<path class="st33" d="M360.5,606.3L360.5,606.3c-0.6,0-1.1,0.5-1.1,1.1c0,0,0,0,0,0v14.6h2.3v-14.6
			C361.6,606.8,361.1,606.3,360.5,606.3L360.5,606.3z"/>
		<circle class="st37" cx="360.4" cy="655.6" r="1.1"/>
		<rect x="362.8" y="602.9" class="st35" width="4.7" height="55.5"/>
		<rect x="362.8" y="625.3" class="st20" width="4.7" height="33.1"/>
		<path class="st22" d="M365.1,606.3L365.1,606.3c-0.6,0-1.1,0.5-1.1,1.1l0,0v14.6h2.3v-14.6C366.3,606.8,365.8,606.3,365.1,606.3
			C365.1,606.3,365.1,606.3,365.1,606.3z"/>
		<circle class="st38" cx="365.1" cy="655.6" r="1.1"/>
		<rect x="367.3" y="602.9" class="st34" width="4.7" height="55.5"/>
		<rect x="367.3" y="625.3" class="st22" width="4.7" height="33.1"/>
		<path class="st33" d="M369.7,606.3L369.7,606.3c-0.6,0-1.1,0.5-1.1,1.1c0,0,0,0,0,0v14.6h2.3v-14.6
			C370.8,606.8,370.3,606.3,369.7,606.3L369.7,606.3z"/>
		<rect x="367.3" y="602.9" class="st30" width="2.3" height="55.5"/>
		<circle class="st39" cx="369.6" cy="655.6" r="1.1"/>
		
			<rect x="384.2" y="604.8" transform="matrix(0.898 -0.4399 0.4399 0.898 -238.8619 234.5691)" class="st34" width="4.7" height="55.5"/>
		
			<rect x="389.2" y="626" transform="matrix(0.898 -0.4399 0.4399 0.898 -242.7826 237.7647)" class="st22" width="4.7" height="33.1"/>
		<path class="st40" d="M375.9,610.6L375.9,610.6c-0.6,0.3-0.8,1-0.5,1.5l6.4,13.1l2-1l-6.4-13.1
			C377.1,610.6,376.4,610.4,375.9,610.6z"/>
		
			<rect x="384.3" y="605.3" transform="matrix(0.898 -0.4399 0.4399 0.898 -239.2082 234.1461)" class="st30" width="2.3" height="55.5"/>
		<path class="st41" d="M398.5,654.4c-0.3-0.6-0.9-0.8-1.5-0.5s-0.8,0.9-0.5,1.5s0.9,0.8,1.5,0.5S398.7,654.9,398.5,654.4z"/>
		<rect x="401" y="601.3" class="st20" width="6.7" height="57.1"/>
		<path class="st32" d="M407.6,648.7H401c-0.2,0-0.3,0.1-0.3,0.3l0,0c0,0.2,0.1,0.3,0.3,0.3c0,0,0,0,0,0h6.6c0.2,0,0.3-0.1,0.3-0.3
			c0,0,0,0,0,0l0,0C407.9,648.8,407.8,648.7,407.6,648.7z"/>
		<path class="st32" d="M407.6,650.9H401c-0.2,0-0.3,0.1-0.3,0.3l0,0c0,0.2,0.1,0.3,0.3,0.3h6.6c0.2,0,0.3-0.1,0.3-0.3l0,0
			C407.9,651,407.8,650.9,407.6,650.9z"/>
		<path class="st32" d="M406.9,650c0,1.4-1.2,2.6-2.6,2.6c-1.4,0-2.6-1.2-2.6-2.6s1.2-2.6,2.6-2.6c0,0,0,0,0,0
			C405.8,647.4,406.9,648.6,406.9,650C406.9,650,406.9,650,406.9,650z"/>
		<circle cx="404.4" cy="650" r="2.2"/>
		<path class="st35" d="M406.1,650c0,0.9-0.8,1.7-1.7,1.7s-1.7-0.8-1.7-1.7s0.8-1.7,1.7-1.7h0C405.3,648.3,406.1,649.1,406.1,650z"
			/>
		<path d="M405.7,650c0,0.7-0.6,1.3-1.3,1.3c-0.7,0-1.3-0.6-1.3-1.3c0-0.7,0.6-1.3,1.3-1.3c0,0,0,0,0,0
			C405.1,648.7,405.7,649.3,405.7,650z"/>
		<rect x="423" y="608.9" class="st35" width="9.4" height="49.5"/>
		<rect x="423" y="656" class="st21" width="9.4" height="0.9"/>
		<rect x="423" y="653.9" class="st35" width="9.4" height="0.9"/>
		<rect x="423" y="651.6" class="st22" width="9.4" height="0.9"/>
		<rect x="427.1" y="612.4" class="st22" width="5.3" height="26.4"/>
		<rect x="427.1" y="612.4" class="st21" width="5.3" height="23.2"/>
		<rect x="427.1" y="612.4" class="st22" width="5.3" height="18.2"/>
		<rect x="407.9" y="595.3" class="st22" width="15" height="63.3"/>
		<path class="st33" d="M408.4,603.9h14c0.6,0,1,0.4,1,1v0.6c0,0.6-0.4,1-1,1h-14c-0.6,0-1-0.4-1-1v-0.6
			C407.4,604.3,407.8,603.9,408.4,603.9z"/>
		<path class="st33" d="M408.4,648.7h14c0.6,0,1,0.4,1,1v0.6c0,0.6-0.4,1-1,1h-14c-0.6,0-1-0.4-1-1v-0.6
			C407.4,649.2,407.8,648.7,408.4,648.7z"/>
		<rect x="411.6" y="609.3" class="st35" width="7.5" height="36.9"/>
		<path class="st42" d="M407.8,595.3v8.8c-0.6,0.5-0.6,1.4-0.1,2c0,0,0.1,0.1,0.1,0.1V649c-0.6,0.5-0.6,1.4-0.1,2
			c0,0,0.1,0.1,0.1,0.1v7.5h7.3v-63.3H407.8z"/>
		<rect x="319.1" y="615.2" class="st35" width="16.9" height="43.1"/>
		<rect x="323.4" y="629.2" class="st16" width="8.5" height="16.8"/>
		<rect x="336.4" y="600.6" class="st22" width="11.7" height="57.7"/>
		<rect x="340.9" y="610.2" class="st32" width="2.9" height="24"/>
		<rect x="336.4" y="600.6" class="st27" width="5.9" height="57.7"/>
		<rect x="348.4" y="602.8" class="st20" width="4.7" height="55.5"/>
		<path class="st37" d="M350.7,605.2L350.7,605.2c-0.9,0-1.7,0.8-1.7,1.7v12.9c0,0.9,0.8,1.7,1.7,1.7l0,0c0.9,0,1.7-0.8,1.7-1.7l0,0
			v-12.9C352.4,605.9,351.6,605.2,350.7,605.2z"/>
		<rect x="348.4" y="625.2" class="st35" width="4.7" height="33.1"/>
		<rect x="314.8" y="536.3" class="st19" width="247.2" height="11.2"/>
		<rect x="325.9" y="473.1" class="st22" width="16.9" height="63.3"/>
		<path class="st33" d="M326.4,481.7h16c0.6,0,1,0.4,1,1v0.6c0,0.6-0.4,1-1,1h-16c-0.6,0-1-0.4-1-1v-0.6
			C325.4,482.2,325.8,481.7,326.4,481.7z"/>
		<path class="st33" d="M326.4,526.5h16c0.6,0,1,0.4,1,1v0.6c0,0.6-0.4,1-1,1h-16c-0.6,0-1-0.4-1-1v-0.6
			C325.4,527,325.8,526.5,326.4,526.5z"/>
		<rect x="330.1" y="487.2" class="st35" width="8.5" height="36.9"/>
		<path class="st42" d="M325.9,473.1v8.9c-0.6,0.4-0.7,1.2-0.3,1.8c0.1,0.1,0.2,0.2,0.3,0.3v42.7c-0.3,0.2-0.5,0.6-0.5,1.1
			c0,0.4,0.2,0.8,0.5,1v7.5h8.2v-63.2H325.9z"/>
		<rect x="491.5" y="493.3" class="st35" width="16.9" height="43.1"/>
		<path class="st27" d="M508.3,502.8h-16.8c-0.2,0-0.4,0.2-0.4,0.4l0,0l0,0c0,0.2,0.2,0.4,0.4,0.4l0,0h16.8c0.2,0,0.4-0.2,0.4-0.4
			l0,0l0,0C508.7,503,508.6,502.8,508.3,502.8L508.3,502.8z"/>
		<path class="st27" d="M508.3,500.4h-16.8c-0.2,0-0.4,0.2-0.4,0.4l0,0l0,0c0,0.2,0.2,0.4,0.4,0.4h16.8c0.2,0,0.4-0.2,0.4-0.4l0,0
			C508.7,500.6,508.6,500.4,508.3,500.4L508.3,500.4z"/>
		<path class="st27" d="M508.3,531.8h-16.8c-0.2,0-0.4,0.2-0.4,0.4l0,0l0,0c0,0.2,0.2,0.4,0.4,0.4h16.8c0.2,0,0.4-0.2,0.4-0.4l0,0
			C508.7,531.9,508.6,531.8,508.3,531.8L508.3,531.8z"/>
		<path class="st27" d="M508.3,529.3h-16.8c-0.2,0-0.4,0.2-0.4,0.4l0,0l0,0c0,0.2,0.2,0.4,0.4,0.4c0,0,0,0,0,0h16.8
			c0.2,0,0.4-0.2,0.4-0.4c0,0,0,0,0,0l0,0C508.7,529.5,508.6,529.3,508.3,529.3L508.3,529.3z"/>
		<rect x="495.7" y="507.3" class="st16" width="8.5" height="16.7"/>
		
			<rect x="346.1" y="461.5" transform="matrix(0.9942 -0.108 0.108 0.9942 -51.8315 40.6733)" class="st43" width="7" height="74.7"/>
		<path class="st21" d="M353.2,532.5L353.2,532.5c-1,0.1-1.8-0.6-1.9-1.6c0,0,0,0,0,0l-5.4-49.4c-0.1-1,0.6-1.8,1.6-1.9c0,0,0,0,0,0
			l0,0c1-0.1,1.8,0.6,1.9,1.6l5.4,49.4C354.9,531.6,354.2,532.4,353.2,532.5C353.2,532.5,353.2,532.5,353.2,532.5z"/>
		<path class="st21" d="M347.9,469.5c0.1,0.8-0.5,1.6-1.4,1.7s-1.6-0.5-1.7-1.4s0.5-1.6,1.4-1.7c0,0,0,0,0,0
			C347,468,347.8,468.6,347.9,469.5z"/>
		<polygon class="st43" points="342,462.1 350.1,536.4 353.1,536.1 345.3,461.8 		"/>
		<polygon class="st33" points="472,536.4 465.3,534.5 480.5,482.1 487.3,484.1 		"/>
		<path class="st44" d="M469.7,532.1L469.7,532.1c-0.9-0.3-1.5-1.2-1.2-2.2l8.3-28.3c0.3-0.9,1.2-1.5,2.2-1.2l0,0
			c0.9,0.3,1.5,1.2,1.2,2.2l-8.3,28.3C471.6,531.8,470.6,532.3,469.7,532.1z"/>
		<path class="st44" d="M483.2,491.1c-0.2,0.8-1.1,1.3-1.9,1c-0.8-0.2-1.3-1.1-1-1.9c0.2-0.8,1.1-1.3,1.9-1c0,0,0,0,0,0
			C483,489.5,483.4,490.3,483.2,491.1z"/>
		<polygon class="st43" points="480.5,482.1 465.3,534.5 468.2,535.3 483.7,483.1 		"/>
		
			<rect x="353.2" y="464.2" transform="matrix(0.9939 -0.1099 0.1099 0.9939 -52.7974 42.425)" class="st35" width="10.5" height="71.9"/>
		
			<rect x="355.8" y="476.3" transform="matrix(0.9939 -0.1099 0.1099 0.9939 -52.4997 42.3757)" class="st16" width="4.6" height="42.2"/>
		
			<rect x="357" y="477.8" transform="matrix(0.9939 -0.1099 0.1099 0.9939 -52.499 42.3763)" class="st22" width="2.2" height="39.1"/>
		
			<rect x="356.7" y="531.5" transform="matrix(0.9939 -0.1099 0.1099 0.9939 -56.3046 43.0094)" class="st16" width="10.5" height="1.5"/>
		
			<rect x="349.8" y="464.4" transform="matrix(0.9939 -0.1099 0.1099 0.9939 -49.4389 41.8652)" class="st35" width="10.5" height="10"/>
		
			<rect x="354.2" y="526.2" transform="matrix(0.9939 -0.1104 0.1104 0.9939 -55.9985 42.9217)" class="st35" width="10.5" height="1.5"/>
		<rect x="369.7" y="524" class="st20" width="60.2" height="12.5"/>
		<rect x="372.5" y="524" class="st22" width="5.6" height="12.5"/>
		<polygon class="st35" points="406.8,536.4 413.6,536.4 426.1,524 419.2,524 		"/>
		<polygon class="st21" points="398.1,536.4 405,536.4 417.5,524 410.6,524 		"/>
		<path class="st16" d="M375.3,528.4c1,0,1.8,0.8,1.8,1.8s-0.8,1.8-1.8,1.8c-1,0-1.8-0.8-1.8-1.8
			C373.5,529.2,374.3,528.4,375.3,528.4L375.3,528.4z"/>
		<rect x="424.1" y="524" class="st22" width="5.8" height="12.5"/>
		<rect x="380.4" y="528.6" class="st16" width="17.5" height="3.3"/>
		<rect x="378.7" y="508.8" class="st35" width="51.9" height="15.1"/>
		<rect x="386.1" y="513" width="30.6" height="6.6"/>
		<rect x="386.7" y="513.5" class="st43" width="29.5" height="5.7"/>
		<rect x="420.3" y="508.8" class="st22" width="5.4" height="15.1"/>
		<rect x="381.7" y="508.8" class="st22" width="2.5" height="15.1"/>
		<path d="M427.9,515.9c0,1.5-2.2,2.8-4.9,2.8s-4.9-1.3-4.9-2.8s2.2-2.8,4.9-2.8S427.9,514.4,427.9,515.9z"/>
		<path class="st43" d="M427.1,515.9c0,1.3-1.8,2.3-4.1,2.3s-4.1-1-4.1-2.3s1.8-2.3,4.1-2.3S427.1,514.6,427.1,515.9z"/>
		<rect x="378.7" y="508.8" class="st27" width="51.9" height="7.8"/>
		<rect x="375" y="501.8" class="st23" width="56" height="7"/>
		<rect x="392.8" y="502.6" class="st16" width="38.2" height="5.3"/>
		<rect x="427.1" y="501.8" class="st20" width="4" height="7"/>
		<rect x="375" y="501.8" class="st20" width="13" height="7"/>
		<rect x="375" y="501.8" class="st25" width="56" height="3.5"/>
		
			<rect x="457.1" y="507.4" transform="matrix(0.2787 -0.9604 0.9604 0.2787 -142.0708 832.2031)" class="st40" width="51.6" height="6.5"/>
		
			<rect x="467.6" y="500.4" transform="matrix(0.2787 -0.9604 0.9604 0.2787 -132.8572 828.7103)" class="st22" width="35.2" height="4.9"/>
		<rect x="488.5" y="485.5" transform="matrix(0.28 -0.96 0.96 0.28 -116.1715 822.6567)" class="st29" width="3.6" height="6.5"/>
		
			<rect x="471.5" y="526.5" transform="matrix(0.2787 -0.9604 0.9604 0.2787 -164.3683 840.6352)" class="st29" width="11.9" height="6.5"/>
		
			<rect x="455.6" y="508.6" transform="matrix(0.2787 -0.9604 0.9604 0.2787 -142.7574 830.3698)" class="st25" width="51.6" height="3.2"/>
		<rect x="458.9" y="497.8" class="st20" width="4.6" height="38.7"/>
		<rect x="460.3" y="526.4" class="st26" width="2" height="8.1"/>
		<rect x="460.6" y="508.2" class="st22" width="1.3" height="13"/>
		<circle class="st26" cx="461.4" cy="500.4" r="1"/>
		<rect x="458.9" y="497.7" class="st30" width="2.3" height="38.7"/>
		<rect x="433.1" y="478.7" class="st20" width="11.7" height="57.7"/>
		<rect x="437.6" y="502.9" class="st45" width="2.9" height="24"/>
		<rect x="436.9" y="529.5" class="st46" width="4.3" height="4.3"/>
		<rect x="433.1" y="478.7" class="st34" width="11.7" height="19.6"/>
		<rect x="508.8" y="478.7" class="st22" width="11.7" height="57.7"/>
		<rect x="513.2" y="488.3" class="st32" width="2.9" height="24"/>
		<path class="st35" d="M514.7,485.7L514.7,485.7c1.2,0,2.1-0.9,2.1-2.1l0,0c0-1.2-0.9-2.1-2.1-2.1c0,0,0,0,0,0l0,0
			c-1.2,0-2.1,0.9-2.1,2.1c0,0,0,0,0,0l0,0C512.5,484.7,513.5,485.7,514.7,485.7z"/>
		<rect x="508.8" y="516.8" class="st35" width="11.7" height="19.6"/>
		<rect x="511.4" y="519.1" class="st22" width="6.6" height="14.9"/>
		<rect x="508.8" y="478.7" class="st27" width="5.9" height="57.7"/>
		<rect x="445.8" y="502.8" class="st20" width="4.6" height="33.6"/>
		<rect x="446.9" y="506.1" class="st30" width="2.4" height="14.7"/>
		<rect x="445.8" y="532" class="st31" width="4.6" height="4.4"/>
		<rect x="445.8" y="502.8" class="st30" width="2.3" height="33.6"/>
		<rect x="451.2" y="499.1" class="st35" width="7" height="37.4"/>
		<rect x="452.3" y="506.8" class="st22" width="4.8" height="29.7"/>
		<rect x="453.4" y="508.5" class="st16" width="2.8" height="26.1"/>
		<polygon class="st22" points="452.9,504.8 454.8,501.7 456.6,504.8 		"/>
		<rect x="451.2" y="499.1" class="st27" width="3.5" height="37.4"/>
		<rect x="520.7" y="480.9" class="st20" width="4.7" height="55.5"/>
		<path class="st37" d="M523.1,483.3L523.1,483.3c-0.9,0-1.7,0.8-1.7,1.7v12.9c0,0.9,0.8,1.7,1.7,1.7l0,0c0.9,0,1.7-0.8,1.7-1.7V485
			C524.8,484.1,524,483.3,523.1,483.3z"/>
		<rect x="520.7" y="503.3" class="st34" width="4.7" height="33.1"/>
		<rect x="520.7" y="480.9" class="st30" width="2.3" height="55.5"/>
		<path class="st20" d="M558.2,523.8h-30.9v0.8h30.2c0,0,3,0.8,3,5.1c0,4.9-3,5.9-3,5.9h-30.2v0.8h30.9c1.2,0,4.8-2.2,4.8-6.2
			S559.5,523.8,558.2,523.8z"/>
		<path class="st47" d="M558.4,535.6h-28.7c0,0,1.4-0.3,1.4-5.6c0-4.9-1.4-5.4-1.4-5.4h28.7c0,0,2.1,0.4,2.1,5.4
			S558.4,535.6,558.4,535.6z"/>
		<path class="st34" d="M557.5,535.6h-28.7c0,0,1.4-0.3,1.4-5.6c0-4.9-1.4-5.4-1.4-5.4h28.7c0,0,2.1,0.4,2.1,5.4
			S557.5,535.6,557.5,535.6z"/>
		<path class="st30" d="M527.3,523.8v0.8h1.5c0,0,1.4,0.5,1.4,5.4c0,5.3-1.4,5.6-1.4,5.6h-1.5v0.8h9.1c0,0,2.9-0.4,2.8-6.4
			s-2.8-6.2-2.8-6.2L527.3,523.8z"/>
		<polygon class="st21" points="552.6,533.2 551.4,532.2 550.3,533.2 550.3,529.4 552.6,529.4 		"/>
		<rect x="528" y="519.3" class="st29" width="33.6" height="4.6"/>
		<rect x="543.6" y="520.4" class="st30" width="14.7" height="2.4"/>
		<rect x="527.9" y="519.3" class="st31" width="4.4" height="4.6"/>
		<rect x="527.9" y="519.3" class="st30" width="33.6" height="2.3"/>
		
			<rect x="541.6" y="489.7" transform="matrix(0.4168 -0.909 0.909 0.4168 -145.5024 791.351)" class="st21" width="4.6" height="38.7"/>
		
			<rect x="555.1" y="510.6" transform="matrix(0.4168 -0.909 0.909 0.4168 -143.4688 805.6903)" class="st26" width="2" height="8.1"/>
		
			<rect x="541.1" y="501.6" transform="matrix(0.4168 -0.909 0.909 0.4168 -145.8621 788.7668)" class="st27" width="1.3" height="13"/>
		<path class="st26" d="M527.8,501.8c0.2-0.5,0.8-0.7,1.3-0.5c0.5,0.2,0.7,0.8,0.5,1.3c-0.2,0.5-0.8,0.7-1.3,0.5c0,0,0,0,0,0
			C527.7,502.9,527.5,502.3,527.8,501.8z"/>
		
			<rect x="543.3" y="488.7" transform="matrix(0.4168 -0.909 0.909 0.4168 -144.2684 791.183)" class="st28" width="2.3" height="38.7"/>
		<polygon class="st48" points="364.3,141.4 330.7,136.2 290.7,154.1 326,164.2 		"/>
		<polygon class="st48" points="378.8,176.3 326,164.2 364.3,141.4 399.1,144 		"/>
		<path class="st16" d="M327.7,161.2l-33.8-9.3l38.4-17.1c1.6,0.5,3.3,0.9,5,1.2c2.2,0.3,17.5,0.4,23.5,3.3
			c4.4-0.2,8.9,0.1,13.3,0.8c6.2,1.2,17.3,2.5,21.2,2.2l2.3,0.9l-18,28.3L327.7,161.2z"/>
		<path class="st49" d="M293.9,151.9l4-1.8c0,0,7.2,2.6,11.6,3.1s19.5,0.9,23.9,5.5c0,0,7.5-1.8,13.8,1.3s29.4,6.5,29.4,6.5l2.8,5
			L327,161L293.9,151.9z"/>
		<path class="st49" d="M375.2,161.9c-6.9-1.2-13.1-2.2-19.5-5.2c-4.2-1.9-8.3-3.5-12.9-2.4c-0.1,0-0.1,0.2,0,0.2
			c6.3-1.2,11.4,2.5,16.9,4.6c4.9,1.8,10.1,2.9,15.4,3.1C375.3,162.3,375.4,162,375.2,161.9z"/>
		<path class="st49" d="M366.9,157.7c-6.2-2-11.9-6.7-18.7-5.7c-0.1,0,0,0.1,0,0.1c7-0.5,12.2,4.3,18.6,5.9c0.1,0,0.2-0.1,0.2-0.1
			C367,157.8,367,157.7,366.9,157.7z"/>
		<path class="st49" d="M374.7,158.9c-1.8-0.4-3.7-0.7-5.6-0.8c0,0-0.1,0-0.1,0.1s0,0.1,0.1,0.1c1.8,0.4,3.7,0.7,5.6,0.9
			C374.8,159.1,374.8,158.9,374.7,158.9z"/>
		<path class="st49" d="M377.3,157c-5.3-0.5-10.4-2.1-15.1-4.5c-3.2-1.6-6.4-3-10.1-2.6c-0.2,0-0.2,0.3,0,0.3
			c5.3-0.1,9.4,2.8,14.1,4.8c3.5,1.4,7.3,2.3,11.1,2.4C377.6,157.4,377.6,157,377.3,157z"/>
		<path class="st49" d="M360.8,148.7c-1.2-0.6-2.5-0.8-3.8-0.7c-0.1,0-0.1,0.1,0,0.1c1.3,0.3,2.4,0.5,3.7,0.9
			C360.8,149,360.9,148.7,360.8,148.7z"/>
		<path class="st49" d="M380,154.4c-3.5,0-7-0.7-10.3-2c-2.4-1-4.5-2.4-7.1-2.9c-0.1,0-0.1,0-0.2,0.1c0,0.1,0,0.1,0.1,0.2
			c0,0,0,0,0,0c3,0.9,5.7,2.6,8.6,3.7c2.8,1,5.8,1.5,8.8,1.3c0.1,0,0.2-0.1,0.2-0.2C380.2,154.5,380.1,154.4,380,154.4z"/>
		<path class="st49" d="M382.8,151.9c-4.9-0.2-9.8-1.5-14.2-3.7c-3-1.4-5.9-2.6-9.3-2.2c0,0-0.1,0-0.1,0.1c0,0,0,0.1,0.1,0.1
			c0,0,0,0,0,0c4.8-0.1,8.4,2.3,12.7,4c3.5,1.4,7.1,2.1,10.8,2.1C383.1,152.3,383.1,151.9,382.8,151.9z"/>
		<path class="st49" d="M383.7,149.6c-6.7-0.2-12.2-4.5-18.8-4.7l0,0c6.6,0.7,12.2,5.1,18.8,5.1c0.1,0,0.1-0.2,0.1-0.2
			C383.8,149.7,383.8,149.6,383.7,149.6z"/>
		<path class="st49" d="M386.1,147.3c-3.8-0.5-7.5-1.2-11.2-2.3c-3.3-1.1-6.4-2.1-9.9-1.9c-0.1,0-0.1,0.1,0,0.1
			c4.1-0.1,7.7,1.6,11.6,2.7c3.1,0.9,6.3,1.4,9.5,1.5C386.1,147.4,386.1,147.3,386.1,147.3z"/>
		<path class="st49" d="M386.6,145.3c-3.7-0.8-7.5-1.1-11.2-2.3c0,0-0.1,0.1,0,0.1c3.6,1.4,7.3,2.3,11.2,2.5
			C386.7,145.6,386.8,145.3,386.6,145.3z"/>
		<path class="st49" d="M334.9,155.4c-6.8-7.2-18.7-4.5-27.4-6.7c-0.1,0-0.1,0.1,0,0.1c9.1,3.1,19.3,0.2,27.2,6.9
			C334.8,155.8,335,155.6,334.9,155.4z"/>
		<path class="st49" d="M336.5,153.3c-6.3-6-15.9-6.4-24.1-5.9c0,0-0.1,0.1-0.1,0.1c0,0,0,0,0.1,0.1c8.6,0.3,16.9,0.2,23.8,6
			C336.4,153.7,336.7,153.4,336.5,153.3z"/>
		<path class="st49" d="M322,145.4c-1.1-0.2-2.1-0.2-3.2,0 M318.8,145.4c1,0.2,2.2,0.1,3.2,0.2c0.2,0.1,0.2-0.3,0-0.3L318.8,145.4z"
			/>
		<path class="st49" d="M339.6,152.3c-3.6-4.4-8.9-7-14.6-7c0,0,0,0.1,0,0.1c5.6,0.2,10.8,2.8,14.4,7.1
			C339.5,152.6,339.7,152.4,339.6,152.3z"/>
		<path class="st49" d="M341.7,148.9c-4.6-5.5-12.2-5.9-18.8-6c-0.1,0-0.1,0.1,0,0.1c6.9,0.3,13.5,0.9,18.6,6
			C341.6,149.3,341.8,149.1,341.7,148.9z"/>
		<path class="st49" d="M344.8,147.5c-1.2-1.6-2.7-2.9-4.4-3.8c-1.9-0.8-3.9-1.3-5.9-1.7c0,0,0,0,0,0.1c0,0,0,0,0,0l0,0
			c1.9,0.5,3.7,1,5.5,1.7c1.9,0.9,3.2,2.5,4.7,3.8C344.8,147.7,344.8,147.7,344.8,147.5C344.8,147.6,344.8,147.6,344.8,147.5z"/>
		<path class="st49" d="M347.9,146.1c-4.6-5.4-11.8-6.4-18.5-7c-0.1,0-0.1,0.1,0,0.1c6.8,0.9,13.4,1.9,18.2,7.1
			C347.8,146.6,348,146.3,347.9,146.1z"/>
		<path class="st49" d="M350.4,143.6c-4.7-4.5-11.2-5.1-17.3-5.5c-0.1,0-0.1,0.1,0,0.2c6.2,0.6,12.2,1.4,17,5.5
			C350.3,144,350.5,143.7,350.4,143.6z"/>
		<path class="st50" d="M592.2,53.7c0,0,0.5-12.4,3.6-14.1s24.4-2.1,28.5-3.3s9.8-3.3,12.3-0.3s-21.5,15.3-23.7,16.4
			s-2.5,6.3-2.5,6.3L592.2,53.7z"/>
		<path class="st50" d="M567.4,63.3c0,0-4.3-11.6-2.1-14.4s21.8-11.3,25.1-14s7.8-6.8,11.3-5s-14,22.4-15.6,24.2s0.1,6.8,0.1,6.8
			L567.4,63.3z"/>
		<path class="st51" d="M524.1,101c0,0,27.7,1,30.1-1.6s4.5-37.1,7.6-44.6c0.7-1.7,22.4-2.4,26,1.9c3.3,3.9-6.3,64.2-7.4,70.6
			s-80,1.8-80,1.8L524.1,101z"/>
		<path class="st52" d="M468.3,97.1c0,0,15.5-6.4,31.5-7.3s30.7,11.1,35.3,12.4s20.5,1.8,24.8,0.9s24-51.9,27.2-53.1
			s26.2,3.1,27.1,7.1s-23.4,80.8-34.7,87.1s-97.3,5.8-110.1,1S468.3,97.1,468.3,97.1z"/>
		<path class="st52" d="M596.8,53.9c-5.2,13.4-10.4,26.8-16.4,39.8c-2.5,5.8-5.4,11.4-8.5,16.9c-4.8,8-11.2,8-19.8,8.5
			c-13,0.6-26.1,0.4-39.1-0.4c-13.9-0.8-28-3.1-41.9-3.1c-0.1,0-0.1,0.1-0.1,0.2c0,0,0,0.1,0.1,0.1c14.5,3,29.9,3.5,44.7,4.4
			c15.2,0.9,31.7,2.3,46.8-0.2c10.5-1.8,14.3-16.2,18.2-24.5c6.3-13.5,11.8-27.4,17.3-41.2C598.4,53.4,597.1,53.1,596.8,53.9z"/>
		<path class="st53" d="M598.2,54.7l-0.2,0.3c0,0,0,0.1,0,0.1s0.1,0,0.1,0l0.3-0.3C598.5,54.7,598.3,54.6,598.2,54.7z"/>
		<path class="st50" d="M364.4,106.8c1.4,0.9,16.4-15.7,25.7-20.2s14.8,5.3,7.4,17.5s-35,31.6-41.4,30.5c-8-1.4-12.1-41.3-11.3-49.5
			s14.4-6.5,15-3.1C361,88.9,363.2,106,364.4,106.8z"/>
		<path class="st50" d="M344.6,88.3c-1.4-10.4-1.5-22.8,0.2-23.3s1.8,5.9,1.8,5.9s-0.3-8.4,1.7-9.1s1.9,8.1,1.9,8.1s0.8-8.3,2.6-8.2
			c2.1,0.1,0.9,8.6,0.9,8.6s1.5-6.1,3.3-5.7s-0.7,10.4,0.2,10.6s3.2-4.1,4.8-2.8s-3,6.7-1.9,11L344.6,88.3z"/>
		<path class="st54" d="M353.7,39.2c-9.5,7.2,1.1,32.3-0.3,40.6s-7.8,23.2,2,31.7s32.6,10.1,43.4-8.2s-6.3-60-18.9-66.5
			C369.7,31.6,362,32.8,353.7,39.2z"/>
		<path class="st50" d="M470.5,97.6c0,0-27.7-6.6-39.7-11.4s-30.6-9.3-33.3-8.4s-12.3,4-12.8,11s1.1,37.5,9.2,41.2
			s20.1,1.5,20.1,1.5s36.6,13.9,59.5,13.8C473.6,145.3,488.6,117.7,470.5,97.6z"/>
		<path class="st22" d="M488.7,111.3c-0.3,1.1,1.9,12,1.6,13l1.6,4.4c-1.8,6.2-5.9,11-7.7,14c-0.7,1-1.4,2-2.1,2.9
			c-0.4,0.5-3.4,0.8-3.4,0.8c-17-2.3-45-5.8-53.1-7.7c-1.3-0.3-2.3-0.5-3.3-0.8l0,0c-1.1-0.3-2.2-0.5-3.3-0.6c-2.1,0-14.6,2.4-25-2
			c-1-0.4-1.9-1.1-2.7-1.9l0,0c-0.6-0.7-1.2-1.4-1.7-2.1l0,0c-5.7-8.7-7.5-27.7-6.6-37.1l0,0c0-0.4,0.1-0.7,0.1-1.1l0,0
			c0.1-0.9,0.3-1.8,0.5-2.7c0.6-2,1-3.5,1.6-4.8l0,0c0.1-0.3,0.2-0.5,0.3-0.8c0.9-1.8,2.3-3.3,5.2-5.3c0.4-0.3,0.9-0.6,1.4-0.8l0,0
			c0.7-0.3,1.5-0.6,2.2-0.8l0,0c2.5-0.6,5.2-0.9,7.8-0.9c0.8,0,1.6,0,2.4,0c14.9,0.3,36.8,5.3,51.9,9.2l0,0l3.1,0.8
			c2.5,0.7,4.8,1.3,6.8,1.9l4.1,1.2c2,0.6,11.5,9.3,11.5,9.3C486,103.3,488.7,111.3,488.7,111.3z"/>
		<path class="st50" d="M392.3,103.9c-7.8,2-7.6-17-7.9-19c-0.1-0.4-0.2-0.7-0.3-1.1c-0.8-1.8-1.6-3.5-2.6-5.3l0,0
			c-0.4,0.4-7.6,7.2-14.3,4.9c-8-2.8-8-12.1-11.3-16s-8-12.4-5.2-19c5.8-13.4,21.8-14,28.2-8.2c5.3,4.9,6.9,15.3,8.8,20.6
			s6.2,17.1,9.9,16.8C400.1,77.6,400.2,101.9,392.3,103.9z"/>
		<g class="st55">
			
				<image style="overflow:visible;enable-background:new    ;" width="122" height="141" xlink:href="6D653835.png"  transform="matrix(1 0 0 1 313.67 0)">
			</image>
		</g>
		<path class="st54" d="M364.8,36c-0.7,0.4-13,1.2-17.4,10.4c-3.3,7,0.9,16.6,3.2,16.7s6.2-5.1,6.2-5.1c3.2-0.4,6.4-1,9.5-1.7
			c2-0.5,4.1,0.1,5.7,1.4c0,0-2.1-2.8-0.5-2.8s7.3,3.1,7.3,3.1s-3.6-1.3,2.6-0.3s4.5-10.3,0.6-16.7S372.3,32.1,364.8,36z"/>
		<path class="st50" d="M378.7,58.9c0,0,1.8-5.1,5.6-5.2s6.5,7.9,2.3,10.5c-1.5,1-3.3,1.1-4.9,0.3L378.7,58.9z"/>
		<g class="st55">
			
				<image style="overflow:visible;enable-background:new    ;" width="78" height="83" xlink:href="6D653837.png"  transform="matrix(1 0 0 1 344.67 37)">
			</image>
		</g>
		<path class="st50" d="M414.9,138.6c1.4-0.9-10.8-26.6-11.2-36.9s13.3-19.6,21.4-7.8s18.8,53.4,15.5,59.1
			c-2.7,4.6-49.2,14.4-56.4,10.3s-5.4-9.6-2.6-11.6S413.7,139.4,414.9,138.6z"/>
		<path class="st50" d="M393.7,164.1c-3.6-0.4-4.6,1.4-7.4,2.8s-6.4-0.4-8.5,0s-4.6,2.8-6.1,2.1s2-4.3,4.3-4.9c0,0-6.7,5.3-8.8,4
			s5.1-6.4,5.1-6.4s-6.3,3.8-8.1,2.5s5.6-5.5,5.6-5.5s-6.3,3.3-7.8,1.7s5.7-6,7.9-6.4s6.6-1.6,14.1-3.4L393.7,164.1z"/>
		<path class="st50" d="M378.2,152.5c-2.4-1.5-5-2.9-7.5-4.1c-2.3-0.9-2.8,4.2,3.5,6.4S378.2,152.5,378.2,152.5z"/>
		<path class="st56" d="M115.8,608.6c2.8,4.2,0.4,9.8-1.6,14.4c-4.9,11.5-7.2,24-6.7,36.5c0.1,2.1-0.4,5-2.5,5
			c-2.2-2-1.6-5.5-2.4-8.4c-0.8-3.1-3.2-5.5-5.4-7.8c-5.7-6-10.8-13.2-12-21.4s2.6-17.6,10.3-20.6c4.6-1.8,9.7-1.2,14.5-0.6
			c1.6,0.1,3.2,0.5,4.7,1.3c1.5,0.8,2.3,2.3,2.2,4"/>
		<path class="st57" d="M105,833.7l-0.1,11.2c0,0,1.5,7.2,2.7,14.8s2.1,15.8,0.9,17.6c-2.4,3.8-7.3,0-8.1-3.8s-2-27.2-2-27.2
			l-0.8-15.1L105,833.7z"/>
		<path class="st57" d="M117.3,832.2l-1.9,10.1c0,0-3.6,27.6-1.6,31.7c2,4.2,8.5,2.3,8.1-3.4s1.2-25.7,1.2-25.7l3.6-12.1
			L117.3,832.2z"/>
		<path class="st11" d="M112.3,709.4l-0.9,12.4l34.3,15.4c6.1,2.8,9.1,9.7,7.1,16.1l-23.9,82.3l-11.6-3.5l10.4-75.7
			c0.7-4.7-2.7-9-7.7-9.7l-12.2-1.8l-13-12.3l15,12.6c3.6,2.9,5.4,7.5,4.8,12.1l-9.6,76.4l-10.7,2.5L89.6,761
			c-0.5-4.9-3.9-9-8.7-10.3l-21.1-6.3c-3.3-1.8-5.4-5.2-5.5-9l0.9-26.5L112.3,709.4z"/>
		<path class="st58" d="M53,737.2l5.7-102.8c0,0,23.4-1.3,30.4-1.3c3.8,0,10.3,1.7,15.4,3.2c4.8,1.4,8.8,1.3,11.1,5.5l38.4,68.7
			l-23.6,2.1l-7.9-8.4l4-5.7L112.1,667l2.8,57.3L53,737.2z"/>
		<path class="st59" d="M90,664.2c-7.7,0-21.9-18.8-21.9-26.1c0-1.4,0.3-2.8,0.7-4.2c7.2-0.4,16.3-0.8,20.1-0.8
			c2.2,0.1,4.3,0.4,6.4,0.9c0.5,1.3,0.7,2.7,0.7,4.1C96.1,645.3,97.8,664.2,90,664.2z"/>
		<path class="st59" d="M91.4,622.5c-0.7,1.2-5.3,18.1-5.3,18.1c-1.3,1.8-3.4,2.7-5.6,2.5c-3.9-0.3-5.6-5.5-5.6-5.5l6.9-21.2
			L91.4,622.5z"/>
		<path class="st60" d="M67.1,612.2c0,11.6,13.2,24.5,25.6,24.5s19.4-12.8,19.4-24.5s-10.1-21-22.5-21S67.1,600.6,67.1,612.2z"/>
		<ellipse class="st60" cx="90.1" cy="613.9" rx="25.3" ry="23.7"/>
		<path class="st60" d="M85.3,727.3c1-0.3,9.3-4.1,15.2-4.1s13.2,5.8,13.2,5.8s1,3.1-3,2.5s0.5,2.3,0.5,2.3
			c-1.6,0.4-3.2,0.6-4.8,0.8c-4.6,0.6-22.5-0.3-22.5-0.3L85.3,727.3z"/>
		<path class="st61" d="M58.7,634.4L55.5,702l29.8,25.2l-1.4,7.1l-41.9-20.9c-4-1.9-6.3-6.1-5.7-10.4l7.6-51.8
			c0.7-6.6,4.9-12.3,11-15L58.7,634.4z"/>
		<path class="st62" d="M82.2,740.1h75.8v-5.2H82.2c-1.5-0.1-2.7,1.1-2.8,2.6c0,0,0,0,0,0l0,0C79.5,739,80.8,740.1,82.2,740.1z"/>
		<path class="st63" d="M103,740.1h73.1c3.1,0.1,5.9-2,6.9-5l12.9-45.4c1.2-4.2-2.2-8.4-6.9-8.4h-63.9c-3.1-0.1-5.9,2-6.9,5
			L103,740.1z"/>
		<polygon class="st11" points="117.4,831.6 115.8,839.2 127,841.1 129,835.5 		"/>
		<polygon class="st11" points="104.9,842 95.1,843.3 94.4,835.3 105,833.7 		"/>
		<path class="st64" d="M78.6,628.7l-0.5-0.5h0l0,0l0,0c0.3-5.5,1.2-11,2.7-16.4c0.2-1.2,0.8-2.4,1.7-3.3c1.3-1,3-1.3,4.6-1
			c1,0,1.9,0.5,2.5,1.2c0.6,0.7,0.4,1.7-0.2,2.2c-0.1,0.1-0.2,0.1-0.2,0.2l0.6-0.8C84.1,615.1,80.3,621.5,78.6,628.7z"/>
		<path class="st64" d="M58.3,617.9c0.3-0.6,0.8-1.2,1.4-1.6c5.8-4.7,6.5-15.8,11.8-21c5.7-5.6,15-7.1,20-8.7
			c5.9-1.8,14.5,4.2,19.6,7.7c4.2,2.9,6.9,10.5,6.3,15.6c0.4,2.1-0.3,4.2-1.8,5.7c-1.7,1.4-3.8,2.2-5.9,2.3c-2.4,0.5-5,0.2-7.3-0.8
			c-2.5-1.3-4.2-3.8-6.7-5.1s-5.7-1.3-8-2.8c-1.9-0.7-4-1.1-6-1.2c-1.2-0.1-2.4,0.2-3.5,0.8c-1,0.7-1.8,7.2-1.2,11.5
			c1.8,12.4-0.6,19,1.4,30.5c3.2,5.6-6.5-0.2-9.6-6.3c-6.8-5.6-9.5-14.8-10.8-24.5C58,619.3,58.1,618.5,58.3,617.9z"/>
	</g>
</g>
</svg>
