<?xml version="1.0" encoding="utf-8"?>
<!-- Generator: Adobe Illustrator 25.2.0, SVG Export Plug-In . SVG Version: 6.00 Build 0)  -->
<svg version="1.1" id="Layer_1" xmlns="http://www.w3.org/2000/svg" xmlns:xlink="http://www.w3.org/1999/xlink" x="0px" y="0px"
	 viewBox="0 0 210.9 139.1" style="enable-background:new 0 0 210.9 139.1;" xml:space="preserve">
<style type="text/css">
	.st0{opacity:0.27;fill:url(#SVGID_1_);enable-background:new    ;}
	.st1{fill:url(#SVGID_2_);}
	.st2{opacity:7.000000e-02;fill:none;stroke:#FFFFFF;stroke-miterlimit:10;enable-background:new    ;}
	.st3{fill:url(#SVGID_3_);}
	.st4{opacity:0.1;fill:none;stroke:#000B6A;stroke-width:0.25;stroke-miterlimit:10;enable-background:new    ;}
</style>
<linearGradient id="SVGID_1_" gradientUnits="userSpaceOnUse" x1="-68.2128" y1="67.786" x2="-67.7128" y2="67.786">
	<stop  offset="0" style="stop-color:#FFFFFF"/>
	<stop  offset="0" style="stop-color:#270F1C"/>
	<stop  offset="1" style="stop-color:#231F20"/>
</linearGradient>
<path class="st0" d="M131.7,82.1c-1.8,24-32.7,45-60.1,45.2c-35.3,0.2-68.1-33.9-70-64.8c-0.3-4.8,0.2-8.3,0.4-9.1
	c4.7-28.4,41.4-46.3,69.6-45c4.5,0.2,9.6,0.5,15.9,3.2c14.3,6.2,21.9,19.6,29.9,34.3C127.4,64,132.4,73.1,131.7,82.1z"/>
<linearGradient id="SVGID_2_" gradientUnits="userSpaceOnUse" x1="37.2948" y1="70.9167" x2="209.5663" y2="70.9167">
	<stop  offset="0" style="stop-color:#FFFFFF"/>
	<stop  offset="0" style="stop-color:#231F20"/>
	<stop  offset="0.9963" style="stop-color:#231F20"/>
</linearGradient>
<path class="st1" d="M209.5,87.3c-2.3,27.5-43.2,51.6-79.5,51.8c-46.6,0.2-90.1-38.9-92.6-74.2c-0.4-5.5,0.3-9.5,0.5-10.5
	c6.2-32.6,54.7-53,92.1-51.6c5.9,0.2,12.8,0.5,21,3.6c18.9,7.1,28.9,22.5,39.6,39.3C203.8,66.6,210.4,77,209.5,87.3z"/>
<path class="st2" d="M76.1,37.3c1.9,2.9,1.3,9.6,0.5,6.9C76,46.8,74,49.8,70,49.8c3,1,3-1,4-3c-1,5-6,3-9.4,5.1
	c-4.5,2.5-7.8,4-3.6,0.6c-8.5,6.9,6.2-2.8,8.8-6.2c-6.2,2.8-25,15.5-19.5,1.8c-5.8,13.4,5.9,3.1,11.6-5c-7.7,5.8-14.5,8.4-16-5.7
	c1.5,12.7,10.6,4.3,14.3-1.2c-2.3,2.8-3.2-3.2-9.8-9.5c7.9,5,14.5,6.7,16.7,6.4c2.1-0.1,0.5-3.1-6-10.9
	c15.2,15.5,18.2,19.4,10.7,4.4c2,3.9,3.8,7,5,9.3c1.2,2.3,1.9,3.6,1.7,4C78.1,43.1,78,40.2,76.1,37.3z"/>
<path class="st2" d="M203.4,93.9c-12,0.6-22.4,0.7-5.9,4c-17.3-1.5-12.5,0.8,1.5,6.7c-15.5-4.4-31.5-9.9-12.7-2.8
	c-19.9-7.2-17.2-5.6,2,7.2c-19.9-12.8-25.5-15.9-16.7-13.7c-8.9-2.2-8.4-2.1,6,9.3c-14.5-11.4-15-11.6-12.4-16.2
	c-2.6,4.5-2.5,4.5,8,5.5c-10.5-1-10.6-1-8.4-8.9c-2.2,7.8-1.8,7.3,12.8-1.7c-14.6,9.1-15,9.5-9.9-0.5c-4.9,10-1.2,6.7,20.6-3.9
	c-21.6,10.6-24.8,13.3-10.5,3.2c-13.8,10.1,1.6,4.4,21.2,1.2c-18.7,4.1-26.8,7.1-6.1,4C173.8,91.7,191.4,91.8,203.4,93.9z"/>
<linearGradient id="SVGID_3_" gradientUnits="userSpaceOnUse" x1="255.96" y1="77.21" x2="255.96" y2="77.21" gradientTransform="matrix(1 0 0 -1 0 142)">
	<stop  offset="0" style="stop-color:#FFFFFF"/>
	<stop  offset="0" style="stop-color:#940063"/>
	<stop  offset="0.88" style="stop-color:#10006A"/>
</linearGradient>
<path class="st3" d="M256,64.8"/>
<path class="st4" d="M104.2,94.5c11-9.4,19,7.6,28.6,9"/>
<path class="st4" d="M105.9,110.7c-1.6-3.6,2.4-7.6,5.4-6.6c9,1,18,5,27.2,5.7"/>
<path class="st4" d="M105.9,110.7c-1.6-3.6,2.4-7.6,5.4-6.6c9,1,18,5,27.2,5.7"/>
<path class="st4" d="M105.9,110.7c-1.6-3.6,2.4-7.6,5.4-6.6c9,1,18,5,27.2,5.7"/>
<path class="st4" d="M109.9,121.9c-1.7-4.8,4.3-7.8,8.3-7.8c8,0,16,2,24.3,3.1"/>
<path class="st4" d="M109.9,121.9c-1.7-4.8,4.3-7.8,8.3-7.8c8,0,16,2,24.3,3.1"/>
<path class="st4" d="M109.9,121.9c-1.7-4.8,4.3-7.8,8.3-7.8c8,0,16,2,24.3,3.1"/>
<path class="st4" d="M113.3,131.5c9-6.4,23-11.4,31.2-2.6"/>
<path class="st4" d="M113.3,131.5c9-6.4,23-11.4,31.2-2.6"/>
<path class="st4" d="M113.3,131.5c9-6.4,23-11.4,31.2-2.6"/>
<path class="st4" d="M113.3,131.5c9-6.4,23-11.4,31.2-2.6"/>
<path class="st4" d="M113.3,131.5c9-6.4,23-11.4,31.2-2.6"/>
<path class="st4" d="M113.3,131.5c9-6.4,23-11.4,31.2-2.6"/>
<path class="st4" d="M113.3,131.5c9-6.4,23-11.4,31.2-2.6"/>
<path class="st4" d="M113.3,131.5c9-6.4,23-11.4,31.2-2.6"/>
<path class="st4" d="M113.3,131.5c9-6.4,23-11.4,31.2-2.6"/>
<path class="st4" d="M113.4,137.6c9.8-0.6,23.8-8.6,29.5,1"/>
</svg>
